<?xml version="1.0" standalone="no"?>
<!DOCTYPE svg PUBLIC "-//W3C//DTD SVG 1.1//EN" "http://www.w3.org/Graphics/SVG/1.1/DTD/svg11.dtd" >
<svg xmlns="http://www.w3.org/2000/svg">
<metadata></metadata>
<defs>
<font id="audimat_monolightoblique" horiz-adv-x="1077" >
<font-face units-per-em="2048" ascent="1638" descent="-410" />
<missing-glyph horiz-adv-x="500" />
<glyph horiz-adv-x="0" />
<glyph unicode="&#xd;" />
<glyph unicode=" " />
<glyph unicode="!" d="M364 0l27 162h161l-27 -162h-161zM466 431l151 862h108l-151 -862h-108z" />
<glyph unicode="&#x22;" d="M234 808l33 270l38 215h107l-37 -215l-62 -270h-79zM666 808l32 270l38 215h107l-37 -215l-62 -270h-78z" />
<glyph unicode="#" d="M183 469l14 70h108l75 216h-146l14 70h156l86 253h71l-87 -253h254l86 253h70l-86 -253h97l-14 -70h-108l-75 -216h145l-13 -70h-156l-87 -253h-70l87 253h-254l-86 -253h-70l86 253h-97zM375 539h253l75 216h-253z" />
<glyph unicode="$" d="M164 224q0 24 3 45l19 108h108l-19 -108q-3 -19 -3 -35q0 -119 138 -126h107q151 0 189 161l30 162q3 19 2 35q0 119 -134 127h-108q-229 16 -229 210q0 27 5 59l30 162q67 269 315 269h22l19 108h67l-19 -108h19q226 0 226 -223q0 -24 -2 -46l-19 -108h-108l19 108 q3 19 2 35q0 119 -137 127h-108q-148 0 -188 -162l-30 -162q-16 -162 135 -161h107q224 0 224 -224q0 -24 -3 -46l-29 -162q-65 -269 -315 -269h-19l-19 -108h-70l19 108h-19q-226 0 -227 224z" />
<glyph unicode="%" d="M70 291l897 763l41 -52l-898 -762zM283 1024l19 108q27 151 188 161h27q151 0 135 -161l-19 -108q-27 -151 -191 -162h-27q-151 0 -132 162zM364 1024q-8 -81 64 -81h27q24 3 44 11q42 19 53 70l19 108q8 81 -67 81h-27q-24 -3 -43 -11q-43 -19 -51 -70zM426 162l19 107 q27 151 191 162h27q151 0 132 -162l-19 -107q-27 -151 -189 -162h-26q-151 0 -135 162zM507 162q-8 -81 67 -81h27q24 3 43 11q43 19 51 70l19 107q8 81 -65 81h-27q-24 -3 -43 -10q-43 -19 -54 -71z" />
<glyph unicode="&#x26;" d="M92 224q0 24 2 45l30 162q22 127 135 216q-65 67 -65 167q0 24 5 48l30 162q65 269 315 269h108q226 0 226 -223q0 -24 -2 -46l-19 -108h-108l19 108q3 19 3 35q0 119 -138 127h-108q-148 0 -188 -162l-30 -162q-3 -19 -2 -35q0 -119 137 -126h485l-22 -108h-107 l-57 -324q-65 -269 -315 -269h-108q-226 0 -226 224zM202 269q-16 -162 135 -161h108q46 3 83 19q89 40 105 142l57 324h-270q-148 0 -188 -162z" />
<glyph unicode="'" d="M450 808l32 270l38 215h108l-38 -215l-62 -270h-78z" />
<glyph unicode="(" d="M213 8q0 24 3 43l172 970q64 270 315 270h162l-19 -108h-162q-151 0 -188 -162l-173 -970q-16 -162 132 -161h162l-19 -108h-161q-224 0 -224 226z" />
<glyph unicode=")" d="M213 -218l19 108h161q151 0 189 161l173 970q16 162 -133 162h-161l19 108h161q224 0 224 -224q0 -24 -3 -46l-172 -970q-65 -269 -315 -269h-162z" />
<glyph unicode="*" d="M275 1073l35 72l191 -64l38 212h78l-38 -212l213 64l11 -72l-213 -65l94 -173l-70 -45l-94 172l-156 -172l-54 45l156 173z" />
<glyph unicode="+" d="M205 485l21 108h270l46 269h107l-45 -269h269l-21 -108h-270l-46 -269h-108l46 269h-269z" />
<glyph unicode="," d="M426 -216l64 378h162l-172 -378h-54z" />
<glyph unicode="-" d="M205 485l21 108h647l-21 -108h-647z" />
<glyph unicode="." d="M445 0l27 162h161l-27 -162h-161z" />
<glyph unicode="/" d="M92 -108l18 108l750 1186l18 107h108l-19 -107l-749 -1186l-19 -108h-107z" />
<glyph unicode="0" d="M175 267q0 27 6 56l113 647q24 135 134.5 229t245.5 94q119 0 195.5 -75t76.5 -191q0 -27 -6 -57l-113 -647q-24 -135 -136 -229t-244 -94q-119 0 -195.5 75.5t-76.5 191.5zM283 286q0 -75 51 -126.5t132 -51.5q89 0 163 63t90 152l114 647q3 19 2 38q0 75 -51 126.5 t-129 51.5q-89 0 -163 -63.5t-90 -152.5l-114 -647q-5 -19 -5 -37z" />
<glyph unicode="1" d="M172 0l19 108h216l191 1078l-234 -108l19 108l234 107h108l-210 -1185h215l-19 -108h-539z" />
<glyph unicode="2" d="M121 0l65 377q67 269 318 270h108q151 0 191 161l38 216q16 162 -135 162h-108q-46 -3 -83 -22q-89 -40 -105 -140l-19 -108h-108l19 108q67 269 315 269h108q226 0 226 -223q0 -24 -2 -46l-38 -216q-46 -251 -318 -269h-108q-49 -3 -83 -19q-89 -40 -108 -143l-46 -269 h539l-19 -108h-647z" />
<glyph unicode="3" d="M164 224q0 24 3 45l19 108h108l-19 -108q-3 -19 -3 -35q0 -119 138 -126h107q151 0 189 161l30 162q16 162 -132 162h-162l19 108h161q46 3 84 18q89 40 105 143l30 162q16 162 -135 162h-108q-46 -3 -83 -22q-89 -40 -105 -140l-19 -108h-108l19 108q67 269 315 269h108 q226 0 226 -223q0 -24 -2 -46l-30 -162q-22 -127 -135 -215q65 -67 65 -167q0 -24 -6 -49l-29 -162q-65 -269 -315 -269h-108q-226 0 -227 224z" />
<glyph unicode="4" d="M124 323l19 108l636 862h108l-151 -862h107l-18 -108h-108l-57 -323h-108l57 323h-485zM251 431h377l124 701z" />
<glyph unicode="5" d="M164 224q0 24 3 45l19 108h108l-19 -108q-3 -19 -3 -35q0 -119 138 -126h107q151 0 189 161l38 216q5 19 5 35q0 119 -137 127h-378l114 646h646l-19 -107h-538l-76 -431h270q226 0 226 -224q0 -24 -5 -46l-38 -216q-65 -269 -315 -269h-108q-226 0 -227 224z" />
<glyph unicode="6" d="M164 224q0 24 3 45l135 755q43 250 315 269h377l-19 -107h-377q-148 0 -188 -162l-49 -269h270q226 0 226 -224q0 -24 -5 -46l-38 -216q-65 -269 -315 -269h-108q-226 0 -227 224zM272 234q0 -119 138 -126h107q151 0 189 161l38 216q5 19 5 35q0 119 -137 127h-270 l-67 -378q-3 -19 -3 -35z" />
<glyph unicode="7" d="M310 1186l19 107h646l-18 -107l-512 -1078l-19 -108h-108l19 108l512 1078h-539z" />
<glyph unicode="8" d="M164 224q0 24 3 45l30 162q22 127 134 216q-62 67 -62 167q0 24 3 48l30 162q67 269 315 269h108q226 0 226 -223q0 -24 -2 -46l-30 -162q-22 -127 -135 -215q65 -67 65 -167q0 -24 -6 -49l-29 -162q-65 -269 -315 -269h-108q-226 0 -227 224zM275 269q-16 -162 135 -161 h107q151 -1 189 161l30 162q16 162 -132 162h-108q-151 0 -191 -162zM377 827q0 -119 138 -126h107q46 3 84 18q89 41 105 143l30 162q16 162 -135 162h-108q-148 0 -188 -162l-30 -162q-3 -19 -3 -35z" />
<glyph unicode="9" d="M121 0l19 108h377q151 0 189 161l49 270h-270q-226 0 -226 224q0 24 5 45l38 216q67 269 315 269h108q226 0 226 -223q0 -24 -2 -46l-135 -755q-43 -250 -315 -269h-378zM366 773q1 -118 138 -126h269l68 377q3 19 2 35q0 119 -137 127h-108q-148 0 -188 -162l-38 -216 q-5 -19 -6 -35z" />
<glyph unicode=":" d="M372 0l30 162h161l-29 -162h-162zM515 808l29 162h162l-30 -162h-161z" />
<glyph unicode=";" d="M353 -216l67 378h162l-175 -378h-54zM534 808l29 162h162l-30 -162h-161z" />
<glyph unicode="&#x3c;" d="M167 539l744 539l-19 -108l-601 -431l447 -431l-19 -108z" />
<glyph unicode="=" d="M178 323l19 108h646l-18 -108h-647zM234 647l19 108h647l-19 -108h-647z" />
<glyph unicode="&#x3e;" d="M167 0l19 108l601 431l-447 431l18 108l553 -539z" />
<glyph unicode="?" d="M283 916l19 108q67 269 315 269h108q226 0 226 -223q0 -24 -2 -46l-38 -216q-46 -251 -318 -269l-19 -108h-108l38 216h108q151 0 191 161l38 216q16 162 -135 162h-108q-46 -3 -83 -22q-89 -40 -105 -140l-19 -108h-108zM364 0l27 162h161l-27 -162h-161z" />
<glyph unicode="@" d="M73 167q0 24 5 49l57 323q54 216 253 216h270l-114 -647h108q32 3 57 13q57 27 70 95l113 646q11 108 -89 108h-593l19 108h593q183 -11 183 -167q0 -24 -5 -49l-113 -646q-54 -216 -254 -216h-161l-35 108q-59 -108 -127 -108h-54q-183 11 -183 167zM186 216 q-19 -100 89 -108h108q54 0 62 54l86 485h-162q-49 0 -83.5 -31t-42.5 -77z" />
<glyph unicode="A" d="M121 0l19 108l477 1185h108l62 -1185l-19 -108h-108l19 108l-8 323h-302l-121 -323l-19 -108h-108zM410 539h258l-16 647z" />
<glyph unicode="B" d="M121 0l227 1293h323q226 0 226 -223q0 -24 -2 -46l-30 -162q-19 -116 -127 -186q110 -62 111 -191q0 -27 -6 -54l-29 -162q-65 -269 -315 -269h-378zM248 108h269q46 3 84 19q89 40 105 142l30 162q3 19 2 35q0 119 -134 127h-270zM353 701h216q46 3 83 18q89 40 105 143 l30 162q3 19 3 35q0 119 -138 127h-215z" />
<glyph unicode="C" d="M164 224q0 24 3 45l135 755q67 269 315 269h108q226 0 226 -223q0 -24 -2 -46l-19 -108h-108l19 108q3 19 2 35q0 119 -137 127h-108q-148 0 -188 -162l-135 -755q-2 -16 -2 -30q0 -131 135 -131h2h107q49 3 84 21q89 40 105 140l19 108h108l-19 -108q-65 -269 -315 -269 h-108q-226 0 -227 224z" />
<glyph unicode="D" d="M121 0l227 1293h377q226 0 226 -223q0 -24 -2 -46l-135 -755q-65 -269 -315 -269h-378zM248 108h269q49 3 84 21q89 40 105 140l135 755q2 14 2 27v8q0 119 -137 127h-269z" />
<glyph unicode="E" d="M156 0l227 1293h539l-19 -107h-431l-84 -485h377l-21 -108h-378l-83 -485h431l-19 -108h-539z" />
<glyph unicode="F" d="M156 0l227 1293h539l-19 -107h-431l-84 -485h377l-21 -108h-378l-102 -593h-108z" />
<glyph unicode="G" d="M164 224q0 24 3 45l135 755q67 269 315 269h108q226 0 226 -223q0 -24 -2 -46l-19 -108h-108l19 108q3 19 2 35q0 119 -137 127h-108q-148 0 -188 -162l-135 -755q-2 -16 -2 -30q0 -131 135 -131h2h107q49 3 84 19q89 40 105 142l49 270h-216l19 108h323l-67 -378 q-65 -269 -315 -269h-108q-226 0 -227 224z" />
<glyph unicode="H" d="M121 0l227 1293h107l-102 -592h431l103 592h107l-226 -1293h-108l105 593h-431l-105 -593h-108z" />
<glyph unicode="I" d="M172 0l19 108h216l191 1078h-215l19 107h538l-18 -107h-216l-191 -1078h215l-19 -108h-539z" />
<glyph unicode="J" d="M164 224q0 24 3 45l19 108h108l-19 -108q-3 -19 -3 -35q0 -119 138 -126h107q151 0 189 161l162 917h-485l19 107h592l-180 -1024q-65 -269 -315 -269h-108q-226 0 -227 224z" />
<glyph unicode="K" d="M121 0l227 1293h107l-102 -592h189l326 485l19 107h107l-19 -107l-328 -488q202 -24 202 -208q-1 -27 -6 -59l-75 -431h-108l76 431q3 19 2 35q0 119 -134 127h-270l-105 -593h-108z" />
<glyph unicode="L" d="M259 0l229 1293h108l-208 -1185h431l-21 -108h-539z" />
<glyph unicode="M" d="M121 0l227 1293h161l60 -592l264 592h161l-226 -1293h-108l208 1186l-348 -755l-83 755l-208 -1186h-108z" />
<glyph unicode="N" d="M121 0l227 1293h107l-18 -107l280 -863l170 970h107l-226 -1293h-108l19 108l-280 862l-170 -970h-108z" />
<glyph unicode="O" d="M164 224q0 24 3 45l135 755q67 269 315 269h108q226 0 226 -223q0 -24 -2 -46l-135 -755q-65 -269 -315 -269h-108q-226 0 -227 224zM275 269q-2 -16 -2 -30q0 -131 135 -131h2h107q49 3 84 21q89 40 105 140l135 755q2 14 2 27v8q0 119 -137 127h-108q-148 0 -188 -162z " />
<glyph unicode="P" d="M121 0l227 1293h377q226 0 226 -223q0 -24 -2 -46l-49 -269q-67 -269 -318 -270h-269l-84 -485h-108zM334 593h270q46 3 83 19q86 41 105 143l49 269q2 14 2 27v8q0 119 -137 127h-269z" />
<glyph unicode="Q" d="M164 224q0 24 3 45l135 755q67 269 315 269h108q226 0 226 -223q0 -24 -2 -46l-135 -755q-24 -146 -138 -215q-70 -43 -156 -51l49 -219h-108l-49 216h-21q-226 0 -227 224zM275 269q-2 -16 -2 -30q0 -131 135 -131h2h107q49 3 84 21q89 40 105 140l135 755q2 14 2 27v8 q0 119 -137 127h-108q-148 0 -188 -162z" />
<glyph unicode="R" d="M121 0l227 1293h377q226 0 226 -223q0 -24 -2 -46l-30 -162q-40 -240 -291 -266l159 -488l-19 -108h-108l19 108l-156 485h-189l-105 -593h-108zM353 701h269q46 3 84 18q89 41 105 143l30 162q2 14 2 27v8q0 119 -137 127h-269z" />
<glyph unicode="S" d="M164 224q0 24 3 45l19 108h108l-19 -108q-3 -19 -3 -35q0 -119 138 -126h107q151 0 189 161l30 162q3 19 2 35q0 119 -134 127h-108q-229 16 -229 210q0 27 5 59l30 162q67 269 315 269h108q226 0 226 -223q0 -24 -2 -46l-19 -108h-108l19 108q3 19 2 35q0 119 -137 127 h-108q-148 0 -188 -162l-30 -162q-2 -16 -2 -30q0 -131 135 -131h2h107q224 0 224 -224q0 -24 -3 -46l-29 -162q-65 -269 -315 -269h-108q-226 0 -227 224z" />
<glyph unicode="T" d="M256 1186l19 107h754l-18 -107h-324l-207 -1186h-108l207 1186h-323z" />
<glyph unicode="U" d="M164 224q0 24 3 45l181 1024h107l-180 -1024q-2 -16 -2 -30q0 -131 135 -131h2h107q49 3 84 19q89 40 105 142l181 1024h107l-180 -1024q-65 -269 -315 -269h-108q-226 0 -227 224z" />
<glyph unicode="V" d="M329 1186l19 107h107l-18 -107l26 -1078l405 1078l19 107h107l-19 -107l-476 -1186h-108z" />
<glyph unicode="W" d="M229 0l19 108l100 1185h107l-18 -107l-71 -911l192 372l59 -372l251 911l19 107h107l-19 -107l-315 -1186h-108l19 108l-51 323l-164 -323l-19 -108h-108z" />
<glyph unicode="X" d="M121 0l19 108l334 539l-145 539l19 107h107l-18 -107l132 -485l299 485l19 107h107l-19 -107l-334 -539l146 -539l-19 -108h-108l19 108l-129 485l-302 -485l-19 -108h-108z" />
<glyph unicode="Y" d="M329 1186l19 107h107l-18 -107l102 -647l329 647l19 107h107l-19 -107l-401 -755l-75 -431h-108l75 431z" />
<glyph unicode="Z" d="M121 0l19 108l728 1078h-539l19 107h646l-19 -107l-727 -1078h539l-19 -108h-647z" />
<glyph unicode="[" d="M191 -216l264 1509h432l-19 -107h-324l-226 -1294h323l-19 -108h-431z" />
<glyph unicode="\" d="M321 1186l19 107h107l-19 -107l329 -1186l-19 -108h-107l18 108z" />
<glyph unicode="]" d="M191 -216l19 108h324l226 1294h-323l18 107h432l-265 -1509h-431z" />
<glyph unicode="^" d="M269 323l345 432l194 -432h-107l-114 270l-210 -270h-108z" />
<glyph unicode="_" d="M97 0l22 108h862l-22 -108h-862z" />
<glyph unicode="`" d="M461 1509h108l48 -323h-108z" />
<glyph unicode="a" d="M164 224q0 24 3 45l97 539q43 251 315 270h108q137 -8 138 -127q0 -16 -3 -35l81 162h54l-189 -1078h-54l-27 162q-27 -151 -188 -162h-108q-226 0 -227 224zM272 234q0 -119 138 -126h107h2q147 0 187 161l97 539q2 16 2 30q0 132 -137 132h-107q-151 0 -189 -162 l-97 -539q-3 -19 -3 -35z" />
<glyph unicode="b" d="M121 0l264 1509h108l-102 -593q27 151 188 162h108q226 0 227 -224q0 -24 -3 -46l-97 -539q-43 -251 -315 -269h-378zM248 108h269h2q149 0 187 161l97 539q3 19 3 35q0 119 -138 127h-107q-151 0 -189 -162z" />
<glyph unicode="c" d="M164 224q0 24 3 45l97 539q65 269 315 270h108q226 0 227 -224q0 -24 -3 -46l-19 -107h-108l19 107q3 19 3 35q0 119 -138 127h-107q-151 0 -189 -162l-97 -539q-2 -16 -2 -30q0 -131 135 -131h2h107q49 3 84 21q89 40 105 140l19 108h108l-19 -108q-65 -269 -315 -269 h-108q-226 0 -227 224z" />
<glyph unicode="d" d="M164 224q0 24 3 45l97 539q43 251 315 270h270l75 431h108l-264 -1509h-54l-27 162q-27 -151 -188 -162h-108q-226 0 -227 224zM272 234q0 -119 138 -126h107h2q147 0 187 161l124 701h-269q-151 0 -189 -162l-97 -539q-3 -19 -3 -35z" />
<glyph unicode="e" d="M164 224q0 24 3 45l97 539q65 269 315 270h108q226 0 227 -224q0 -24 -3 -46l-59 -323h-539l-38 -216q-2 -16 -2 -30q0 -131 135 -131h2h107q49 3 84 21q89 40 105 140l11 54h108l-11 -54q-65 -269 -315 -269h-108q-226 0 -227 224zM334 593h431l38 215q3 19 3 35 q0 119 -138 127h-107q-151 0 -189 -162z" />
<glyph unicode="f" d="M46 -431l19 108h107q30 3 54 13q59 27 73 94l200 1132h-216l19 108h215l38 216q67 269 315 269h162l-19 -108h-161q-148 0 -189 -161l-38 -216h270l-19 -108h-270l-199 -1132q-54 -215 -253 -215h-108z" />
<glyph unicode="g" d="M100 -431l19 108h323q148 0 189 161l56 324q-27 -151 -188 -162h-108q-226 0 -227 224q0 24 3 45l97 539q43 251 315 270h378l-219 -1240q-67 -269 -315 -269h-323zM272 234q0 -119 138 -126h107h2q147 0 187 161l124 701h-269q-151 0 -189 -162l-97 -539q-3 -19 -3 -35z " />
<glyph unicode="h" d="M121 0l264 1509h108l-102 -593q27 151 188 162h108q226 0 227 -224q0 -24 -3 -46l-143 -808h-108l143 808q3 19 3 35q0 119 -138 127h-107q-151 0 -189 -162l-143 -808h-108z" />
<glyph unicode="i" d="M121 0l19 108h270l151 862h-216l19 108h323l-170 -970h270l-19 -108h-647zM601 1347l27 162h162l-27 -162h-162z" />
<glyph unicode="j" d="M46 -431l19 108h107q148 0 189 161l200 1132h-270l19 108h647l-19 -108h-270l-199 -1132q-67 -269 -315 -269h-108zM601 1347l27 162h162l-27 -162h-162z" />
<glyph unicode="k" d="M121 0l264 1509h108l-151 -862h192l315 431h108l-316 -434q197 -24 197 -203q0 -30 -5 -64l-65 -377h-108l65 377q5 19 5 35q0 119 -137 127h-270l-94 -539h-108z" />
<glyph unicode="l" d="M121 0l19 108h270l226 1293h-270l19 108h378l-246 -1401h270l-19 -108h-647z" />
<glyph unicode="m" d="M67 0l189 1078h54l35 -108q59 108 127 108q121 0 161 -86q62 86 162 86q183 -11 183 -167q0 -24 -5 -49l-151 -862h-108l151 862q3 15 3 28q0 73 -92 80q-32 -3 -57 -13q-57 -27 -70 -95l-150 -862h-108l151 862q3 15 3 28q0 73 -92 80q-32 -3 -57 -13q-57 -27 -70 -95 l-151 -862h-108z" />
<glyph unicode="n" d="M121 0l189 1078h54l27 -162q27 151 188 162h108q226 0 227 -224q0 -24 -3 -46l-143 -808h-108l143 808q3 19 3 35q0 119 -138 127h-107q-151 0 -189 -162l-143 -808h-108z" />
<glyph unicode="o" d="M164 224q0 24 3 45l97 539q65 269 315 270h108q226 0 227 -224q0 -24 -3 -46l-97 -539q-65 -269 -315 -269h-108q-226 0 -227 224zM275 269q-2 -16 -2 -30q0 -131 135 -131h2h107q49 3 84 19q89 40 105 142l97 539q3 19 3 35q0 119 -138 127h-107q-151 0 -189 -162z" />
<glyph unicode="p" d="M46 -431l264 1509h54l27 -162q27 151 188 162h108q226 0 227 -224q0 -24 -3 -46l-97 -539q-43 -251 -315 -269h-270l-75 -431h-108zM248 108h269q151 0 189 161l97 539q3 19 3 35q0 119 -138 127h-107q-151 0 -189 -162z" />
<glyph unicode="q" d="M164 224q0 24 3 45l97 539q43 251 315 270h378l-264 -1509h-108l102 593q-27 -151 -188 -162h-108q-226 0 -227 224zM272 234q0 -119 138 -126h107q148 0 189 161l124 701h-269q-151 0 -189 -162l-97 -539q-3 -19 -3 -35z" />
<glyph unicode="r" d="M121 0l189 1078h54l27 -162q27 151 188 162h108q226 0 227 -224q0 -24 -3 -46l-49 -269h-107l48 269q3 19 3 35q0 119 -138 127h-107q-151 0 -189 -162l-143 -808h-108z" />
<glyph unicode="s" d="M121 0l19 108h377q49 3 84 21q89 40 105 140l11 54q2 16 2 30q0 132 -137 132h-108q-226 16 -226 210q0 27 5 60l11 53q64 270 315 270h324l-19 -108h-323q-49 -3 -84 -21q-89 -40 -105 -141l-11 -53q-2 -16 -2 -30q0 -132 137 -132h108q226 -16 226 -210q0 -27 -5 -60 l-11 -54q-65 -269 -315 -269h-378z" />
<glyph unicode="t" d="M283 916l19 108h161l46 269h108l-46 -269h378l-19 -108h-378l-115 -647q-2 -16 -2 -30q0 -131 134 -131h2h216l-19 -108h-216q-226 0 -226 224q0 24 3 45l116 647h-162z" />
<glyph unicode="u" d="M164 224q0 24 3 45l143 809h108l-143 -809q-3 -19 -3 -35q0 -119 138 -126h107q148 0 189 161l143 809h108l-189 -1078h-54l-27 162q-27 -151 -188 -162h-108q-226 0 -227 224z" />
<glyph unicode="v" d="M291 970l19 108h108l-19 -108l64 -862l367 862l19 108h108l-19 -108l-439 -970h-108z" />
<glyph unicode="w" d="M100 167q0 24 5 49l151 862h108l-151 -862q-3 -15 -3 -28q0 -73 92 -80q32 3 56 13q57 27 70 95l151 862h108l-151 -862q-3 -15 -3 -28q0 -73 92 -80q32 3 57 13q57 27 70 95l151 862h108l-151 -862q-35 -199 -254 -216q-136 0 -136 131q0 15 2 31q-40 -162 -189 -162 q-183 11 -183 167z" />
<glyph unicode="x" d="M121 0l19 108l315 431l-164 431l19 108h108l-19 -108l151 -377l280 377l19 108h108l-19 -108l-316 -431l165 -431l-19 -108h-108l19 108l-151 377l-280 -377l-19 -108h-108z" />
<glyph unicode="y" d="M46 -431l19 108h107q148 0 189 161l30 162l-100 970l19 108h108l-19 -108l64 -862l367 862l19 108h108l-19 -108l-439 -970l-30 -162q-67 -269 -315 -269h-108z" />
<glyph unicode="z" d="M121 0l19 108l690 862h-539l19 108h647l-19 -108l-690 -862h539l-19 -108h-647z" />
<glyph unicode="{" d="M199 482l19 108h54q148 0 189 162l48 269q67 269 316 270h53l-18 -108h-54q-148 0 -189 -162l-48 -269q-24 -143 -138 -216q67 -54 68 -153q0 -30 -6 -62l-48 -270q-16 -162 134 -161h54l-19 -108h-53q-226 0 -227 226q0 24 3 43l48 270q16 162 -132 161h-54z" />
<glyph unicode="|" d="M353 -216l264 1509h108l-264 -1509h-108z" />
<glyph unicode="}" d="M199 -218l19 108h54q148 0 189 161l48 270q24 146 138 215q-67 57 -68 157q1 29 6 59l48 269q16 162 -134 162h-54l18 108h54q226 0 227 -224q0 -24 -3 -46l-48 -269q-16 -162 132 -162h53l-18 -108h-54q-148 0 -189 -161l-48 -270q-67 -269 -316 -269h-54z" />
<glyph unicode="~" d="M202 458l8 54q11 59 57 105q54 57 135 57q70 0 177 -92q81 -70 116 -70q54 0 65 54l11 54h105l-8 -54q-11 -59 -57 -105q-54 -57 -135 -57q-70 0 -177 92q-81 70 -116 70q-54 0 -65 -54l-11 -54h-105z" />
<glyph unicode="&#xa0;" />
<glyph unicode="&#xa1;" d="M391 -216l151 863h107l-150 -863h-108zM563 916l27 162h162l-27 -162h-162z" />
<glyph unicode="&#xa2;" d="M183 331q0 24 3 46l97 539q65 269 315 270h19l22 107h67l-19 -107h19q226 0 226 -224q0 -24 -2 -46l-19 -108h-108l19 108q3 19 3 35q0 119 -138 127h-108q-148 0 -188 -162l-97 -539q-16 -162 134 -161h108q49 3 84 21q89 40 105 140l19 108h108l-19 -108 q-65 -269 -316 -269h-18l-19 -108h-70l18 108h-18q-226 0 -227 223z" />
<glyph unicode="&#xa3;" d="M121 0l111 631h-108l13 70h108l57 323q67 269 315 269h108q226 0 226 -223q0 -24 -2 -46l-19 -108h-108l19 108q3 19 2 35q0 119 -137 127h-108q-148 0 -188 -162l-57 -323h323l-13 -70h-323l-92 -523h539l-19 -108h-647z" />
<glyph unicode="&#xa4;" d="M97 485l13 70h108l33 183h-108l13 70h108l38 216q67 269 315 269h108q226 0 226 -223q0 -24 -2 -46l-19 -108h-108l19 108q3 19 2 35q0 119 -137 127h-108q-148 0 -188 -162l-38 -216h269l-13 -70h-270l-32 -183h270l-14 -70h-269l-38 -216q-16 -162 135 -161h107 q49 3 84 21q89 40 105 140l19 108h108l-19 -108q-65 -269 -315 -269h-108q-226 0 -227 224q0 24 3 45l38 216h-108z" />
<glyph unicode="&#xa5;" d="M213 216l11 70h215l27 145l-8 38h-202l13 70h178l-118 647l19 107h107l-18 -107l102 -647l329 647l19 107h107l-19 -107l-344 -647h177l-13 -70h-199l-22 -38l-27 -145h216l-11 -70h-216l-37 -216h-108l37 216h-215z" />
<glyph unicode="&#xa6;" d="M353 -216l121 701h108l-121 -701h-108zM496 593l121 700h108l-121 -700h-108z" />
<glyph unicode="&#xa7;" d="M127 8q0 24 2 43l19 108h108l-19 -108q-3 -19 -3 -35q0 -116 138 -126h108q148 0 188 161l11 54q16 162 -135 162h-107q-224 0 -224 226q0 24 3 43q24 146 137 216q-65 67 -65 167q0 24 3 48l11 54q67 269 315 270h108q226 0 226 -224q0 -24 -2 -46l-19 -107h-108l19 107 q3 19 2 38q0 116 -137 124h-108q-148 0 -188 -162l-11 -54q-16 -162 135 -161h107q224 0 224 -224q0 -24 -3 -46q-24 -143 -140 -215q70 -54 70 -154q0 -30 -5 -62l-11 -54q-67 -269 -315 -269h-108q-226 0 -226 226zM321 501q0 -116 134 -126h108q151 0 192 161q3 19 2 38 q0 116 -135 124h-107q-151 0 -192 -162q-3 -19 -2 -35z" />
<glyph unicode="&#xa8;" d="M256 1240l27 161h162l-27 -161h-162zM633 1240l27 161h162l-27 -161h-162z" />
<glyph unicode="&#xa9;" d="M46 725q0 224 176.5 396t402.5 172q178 0 292.5 -114.5t114.5 -286.5q0 -224 -176.5 -396.5t-402.5 -172.5q-178 0 -292.5 114.5t-114.5 287.5zM102 733q0 -154 101 -255t260 -101q199 0 355.5 153.5t156.5 353.5q0 154 -101 255t-260 101q-199 0 -355.5 -154 t-156.5 -353zM340 755l21 107q24 151 189 162h54q150 0 134 -162h-107l2 27q11 51 -43 54h-54q-54 0 -64 -54l-27 -161q-11 -51 43 -54h54q54 0 64 54l3 27h108q-24 -151 -189 -162h-54q-151 0 -134 162z" />
<glyph unicode="&#xaa;" d="M261 539l14 70h539l-14 -70h-539zM423 916l5 27q22 124 159 135h135l8 54q8 81 -64 81h-162l13 80h162q137 -8 138 -126q0 -16 -6 -35l-65 -377h-53l-14 80q-13 -75 -94 -80h-27q-151 0 -135 161zM504 916q-13 -75 67 -81h27q81 0 95 81l13 81h-135q-54 0 -62 -54z" />
<glyph unicode="&#xab;" d="M183 539l334 377h108l-334 -377l202 -377h-108zM453 539l334 377h108l-334 -377l202 -377h-108z" />
<glyph unicode="&#xac;" d="M205 485l21 108h647l-59 -324h-108l38 216h-539z" />
<glyph unicode="&#xad;" d="M205 485l21 108h647l-21 -108h-647z" />
<glyph unicode="&#xae;" d="M46 725q0 224 176.5 396t402.5 172q178 0 292.5 -114.5t114.5 -286.5q0 -224 -176.5 -396.5t-402.5 -172.5q-178 0 -292.5 114.5t-114.5 287.5zM102 733q0 -154 101 -255t260 -101q199 0 355.5 153.5t156.5 353.5q0 154 -101 255t-260 101q-199 0 -355.5 -154 t-156.5 -353zM313 593l75 431h229q62 0 97 -43t24 -105q-8 -54 -49.5 -94.5t-95.5 -51.5l97 -137h-124l-78 135h-43l-25 -135h-107zM458 808h108q54 0 65 54l2 27q11 51 -43 54h-108z" />
<glyph unicode="&#xaf;" d="M97 1186l22 107h862l-22 -107h-862z" />
<glyph unicode="&#xb0;" d="M372 1108l11 51q32 135 159 134h54q124 0 110 -134l-11 -51q-32 -135 -159 -135h-54q-124 0 -110 135zM426 1108q-8 -81 67 -81h54q24 0 43 8q43 22 51 73l11 51q13 75 -67 81h-54q-81 0 -94 -81z" />
<glyph unicode="&#xb1;" d="M159 0l19 108h647l-19 -108h-647zM253 539l19 108h270l48 269h108l-49 -269h270l-19 -108h-269l-49 -270h-108l49 270h-270z" />
<glyph unicode="&#xb2;" d="M331 755l22 134q40 162 191 162h27q81 0 95 81q8 81 -65 81h-27q-24 -3 -43 -11q-43 -19 -54 -70l-3 -27h-81l3 27q27 151 191 161h27q151 0 132 -161q-40 -162 -188 -162h-27q-81 0 -97 -81l-8 -54h269l-13 -80h-351z" />
<glyph unicode="&#xb3;" d="M342 881q0 16 6 35l2 27h81l-3 -27q-11 -81 65 -81h27q81 0 97 81q8 81 -70 73h-54l14 70h54q78 -8 94 73q8 81 -68 81h-26q-24 -3 -44 -11q-43 -19 -51 -70l-5 -27h-81l5 27q27 151 189 161h27q151 0 135 -161q-17 -95 -103 -108q67 -11 68 -78q0 -13 -3 -30 q-40 -162 -191 -161h-27q-137 8 -138 126z" />
<glyph unicode="&#xb4;" d="M402 1186l167 323h107l-167 -323h-107z" />
<glyph unicode="&#xb5;" d="M46 -431l264 1509h108l-143 -809q-3 -19 -3 -35q0 -119 138 -126h107q148 0 189 161l143 809h108l-189 -1078h-54l-27 162q-27 -151 -188 -162h-108q-81 0 -154 49l-83 -480h-108z" />
<glyph unicode="&#xb6;" d="M251 711q0 24 2 44l49 269q64 269 315 269h162l-267 -1509h-108l124 701h-54q-224 0 -223 226zM620 -216l267 1509h107l-266 -1509h-108z" />
<glyph unicode="&#xb7;" d="M445 458l27 162h161l-27 -162h-161z" />
<glyph unicode="&#xb8;" d="M375 -323l18 107h54q32 3 57 14q59 27 73 94l19 108h107l-19 -108q-54 -216 -256 -215h-53z" />
<glyph unicode="&#xb9;" d="M383 755l16 80h108l64 378l-116 -54l14 81l105 53h94l-81 -458h108l-16 -80h-296z" />
<glyph unicode="&#xba;" d="M264 539l11 70h539l-11 -70h-539zM423 916l40 216q24 151 189 161h27q151 0 135 -161l-41 -216q-24 -151 -188 -161h-27q-151 0 -135 161zM504 916q-8 -81 67 -81h27q24 3 43 11q44 19 52 70l40 216q8 81 -67 81h-27q-24 -3 -43 -11q-43 -19 -52 -70z" />
<glyph unicode="&#xbb;" d="M183 162l334 377l-202 377h108l202 -377l-334 -377h-108zM453 162l334 377l-202 377h108l202 -377l-334 -377h-108z" />
<glyph unicode="&#xbc;" d="M70 291l897 763l41 -52l-898 -762zM234 755l14 80h108l67 378l-116 -54l14 81l102 53h94l-80 -458h107l-13 -80h-297zM391 108l8 54l310 377h81l-62 -350h53l-13 -81h-54l-19 -108h-81l19 108h-242zM485 189h162l43 242z" />
<glyph unicode="&#xbd;" d="M70 291l897 763l41 -52l-898 -762zM234 755l14 80h108l67 378l-116 -54l14 81l102 53h94l-80 -458h107l-13 -80h-297zM399 0l21 135q40 162 192 161h27q81 0 94 81q11 81 -65 81h-27q-24 -3 -43 -11q-43 -19 -54 -70l-2 -27h-81l2 27q27 151 192 162h27q151 0 132 -162 q-40 -162 -189 -161h-27q-81 0 -97 -81l-8 -54h270l-14 -81h-350z" />
<glyph unicode="&#xbe;" d="M70 291l897 763l41 -52l-898 -762zM259 881q0 16 5 35l3 27h81l-3 -27q-11 -81 65 -81h27q81 0 97 81q8 81 -71 73h-53l13 70h54q78 -8 94 73q8 81 -67 81h-27q-24 -3 -43 -11q-43 -19 -51 -70l-6 -27h-81l6 27q27 151 188 161h27q151 0 135 -161q-16 -95 -102 -108 q67 -11 67 -78q0 -13 -3 -30q-40 -162 -191 -161h-27q-137 8 -137 126zM391 108l8 54l310 377h81l-62 -350h53l-13 -81h-54l-19 -108h-81l19 108h-242zM485 189h162l43 242z" />
<glyph unicode="&#xbf;" d="M164 8q0 24 3 46l38 215q46 251 318 270l19 108h107l-37 -216h-108q-151 0 -191 -162l-38 -215q-16 -162 135 -162h107q49 3 84 22q89 40 105 140l19 108h108l-19 -108q-65 -269 -315 -270h-108q-226 0 -227 224zM563 916l27 162h162l-27 -162h-162z" />
<glyph unicode="&#xc0;" d="M121 0l19 108l477 1185h108l62 -1185l-19 -108h-108l19 108l-8 323h-302l-121 -323l-19 -108h-108zM410 539h258l-16 647zM528 1725h108l51 -324h-108z" />
<glyph unicode="&#xc1;" d="M121 0l19 108l477 1185h108l62 -1185l-19 -108h-108l19 108l-8 323h-302l-121 -323l-19 -108h-108zM410 539h258l-16 647zM579 1401l165 324h108l-165 -324h-108z" />
<glyph unicode="&#xc2;" d="M121 0l19 108l477 1185h108l62 -1185l-19 -108h-108l19 108l-8 323h-302l-121 -323l-19 -108h-108zM410 539h258l-16 647zM418 1401l272 324l159 -324h-108l-73 189l-143 -189h-107z" />
<glyph unicode="&#xc3;" d="M121 0l19 108l477 1185h108l62 -1185l-19 -108h-108l19 108l-8 323h-302l-121 -323l-19 -108h-108zM396 1455l8 38q8 54 49 97q51 51 124 51t121 -100q32 -62 65 -62q67 0 80 68l9 40h75l-5 -40q-11 -54 -52 -95q-49 -51 -121 -51q-75 0 -121 97q-32 65 -65 65 q-70 0 -83 -70l-6 -38h-78zM410 539h258l-16 647z" />
<glyph unicode="&#xc4;" d="M121 0l19 108l477 1185h108l62 -1185l-19 -108h-108l19 108l-8 323h-302l-121 -323l-19 -108h-108zM383 1455l29 162h162l-30 -162h-161zM410 539h258l-16 647zM760 1455l30 162h161l-29 -162h-162z" />
<glyph unicode="&#xc5;" d="M121 0l19 108l477 1185h108l62 -1185l-19 -108h-108l19 108l-8 323h-302l-121 -323l-19 -108h-108zM410 539h258l-16 647zM501 1563q11 67 67.5 114.5t121.5 47.5q67 0 106 -47.5t29 -114.5q-13 -67 -68.5 -114.5t-123.5 -47.5q-67 0 -106 47.5t-26 114.5zM561 1563 q-5 -43 19 -72.5t64 -29.5q43 0 78 29.5t41 72.5q8 43 -16.5 71.5t-67.5 28.5q-40 0 -75 -28.5t-43 -71.5z" />
<glyph unicode="&#xc6;" horiz-adv-x="2155" d="M121 0l19 108l477 1185h108l62 -1185l-19 -108h-108l19 108l-8 323h-302l-121 -323l-19 -108h-108zM410 539h258l-16 647zM1234 0l227 1293h538l-18 -107h-432l-83 -485h377l-21 -108h-378l-83 -485h431l-19 -108h-539z" />
<glyph unicode="&#xc7;" d="M164 224q0 24 3 45l135 755q67 269 315 269h108q226 0 226 -223q0 -24 -2 -46l-19 -108h-108l19 108q3 19 2 35q0 119 -137 127h-108q-148 0 -188 -162l-135 -755q-16 -162 135 -161h107q49 3 84 19q89 40 105 142l19 108h108l-19 -108q-65 -269 -315 -269h-108 q-226 0 -227 224zM181 -323l18 107h54q32 3 57 14q59 27 70 94l19 108h108l-19 -108q-54 -216 -254 -215h-53z" />
<glyph unicode="&#xc8;" d="M156 0l227 1293h539l-19 -107h-431l-84 -485h377l-21 -108h-378l-83 -485h431l-19 -108h-539zM528 1725h108l51 -324h-108z" />
<glyph unicode="&#xc9;" d="M156 0l227 1293h539l-19 -107h-431l-84 -485h377l-21 -108h-378l-83 -485h431l-19 -108h-539zM579 1401l165 324h108l-165 -324h-108z" />
<glyph unicode="&#xca;" d="M156 0l227 1293h539l-19 -107h-431l-84 -485h377l-21 -108h-378l-83 -485h431l-19 -108h-539zM418 1401l272 324l159 -324h-108l-73 189l-143 -189h-107z" />
<glyph unicode="&#xcb;" d="M156 0l227 1293h539l-19 -107h-431l-84 -485h377l-21 -108h-378l-83 -485h431l-19 -108h-539zM383 1455l29 162h162l-30 -162h-161zM760 1455l30 162h161l-29 -162h-162z" />
<glyph unicode="&#xcc;" d="M172 0l19 108h216l191 1078h-215l19 107h538l-18 -107h-216l-191 -1078h215l-19 -108h-539zM528 1725h108l51 -324h-108z" />
<glyph unicode="&#xcd;" d="M172 0l19 108h216l191 1078h-215l19 107h538l-18 -107h-216l-191 -1078h215l-19 -108h-539zM579 1401l165 324h108l-165 -324h-108z" />
<glyph unicode="&#xce;" d="M172 0l19 108h216l191 1078h-215l19 107h538l-18 -107h-216l-191 -1078h215l-19 -108h-539zM418 1401l272 324l159 -324h-108l-73 189l-143 -189h-107z" />
<glyph unicode="&#xcf;" d="M172 0l19 108h216l191 1078h-215l19 107h538l-18 -107h-216l-191 -1078h215l-19 -108h-539zM383 1455l29 162h162l-30 -162h-161zM760 1455l30 162h161l-29 -162h-162z" />
<glyph unicode="&#xd0;" d="M46 458v67l172 30l130 738h377q226 0 226 -223q0 -24 -2 -46l-135 -755q-65 -269 -315 -269h-378l86 485zM248 108h269q49 3 84 21q89 40 105 140l135 755q3 19 2 35q0 119 -137 127h-269l-108 -612l264 46v-68l-275 -48z" />
<glyph unicode="&#xd1;" d="M121 0l227 1293h107l-18 -107l280 -863l170 970h107l-226 -1293h-108l19 108l-280 862l-170 -970h-108zM396 1455l8 38q8 54 49 97q51 51 124 51t121 -100q32 -62 65 -62q67 0 80 68l9 40h75l-5 -40q-11 -54 -52 -95q-49 -51 -121 -51q-75 0 -121 97q-32 65 -65 65 q-70 0 -83 -70l-6 -38h-78z" />
<glyph unicode="&#xd2;" d="M164 224q0 24 3 45l135 755q67 269 315 269h108q226 0 226 -223q0 -24 -2 -46l-135 -755q-65 -269 -315 -269h-108q-226 0 -227 224zM275 269q-16 -162 135 -161h107q49 3 84 19q89 40 105 142l135 755q3 19 2 35q0 119 -137 127h-108q-148 0 -188 -162zM528 1725h108 l51 -324h-108z" />
<glyph unicode="&#xd3;" d="M164 224q0 24 3 45l135 755q67 269 315 269h108q226 0 226 -223q0 -24 -2 -46l-135 -755q-65 -269 -315 -269h-108q-226 0 -227 224zM275 269q-16 -162 135 -161h107q49 3 84 19q89 40 105 142l135 755q3 19 2 35q0 119 -137 127h-108q-148 0 -188 -162zM579 1401 l165 324h108l-165 -324h-108z" />
<glyph unicode="&#xd4;" d="M164 224q0 24 3 45l135 755q67 269 315 269h108q226 0 226 -223q0 -24 -2 -46l-135 -755q-65 -269 -315 -269h-108q-226 0 -227 224zM275 269q-16 -162 135 -161h107q49 3 84 19q89 40 105 142l135 755q3 19 2 35q0 119 -137 127h-108q-148 0 -188 -162zM418 1401 l272 324l159 -324h-108l-73 189l-143 -189h-107z" />
<glyph unicode="&#xd5;" d="M164 224q0 24 3 45l135 755q67 269 315 269h108q226 0 226 -223q0 -24 -2 -46l-135 -755q-65 -269 -315 -269h-108q-226 0 -227 224zM275 269q-16 -162 135 -161h107q49 3 84 19q89 40 105 142l135 755q3 19 2 35q0 119 -137 127h-108q-148 0 -188 -162zM396 1455l8 38 q8 54 49 97q51 51 124 51t121 -100q32 -62 65 -62q67 0 80 68l9 40h75l-5 -40q-11 -54 -52 -95q-49 -51 -121 -51q-75 0 -121 97q-32 65 -65 65q-70 0 -83 -70l-6 -38h-78z" />
<glyph unicode="&#xd6;" d="M164 224q0 24 3 45l135 755q67 269 315 269h108q226 0 226 -223q0 -24 -2 -46l-135 -755q-65 -269 -315 -269h-108q-226 0 -227 224zM275 269q-16 -162 135 -161h107q49 3 84 19q89 40 105 142l135 755q3 19 2 35q0 119 -137 127h-108q-148 0 -188 -162zM383 1455l29 162 h162l-30 -162h-161zM760 1455l30 162h161l-29 -162h-162z" />
<glyph unicode="&#xd7;" d="M240 348l223 191l-158 191l91 76l156 -192l224 192l62 -76l-224 -191l159 -191l-91 -76l-157 191l-223 -191z" />
<glyph unicode="&#xd8;" d="M146 -51l64 124q-49 51 -48 137q0 27 5 59l135 755q67 269 315 269h108q62 0 127 -32l59 108l62 -24l-68 -124q49 -51 49 -138q0 -27 -5 -59l-135 -755q-65 -269 -315 -269h-108q-62 0 -127 32l-59 -107zM275 269q-5 -43 3 -72l520 962q-32 27 -92 27h-108 q-148 0 -188 -162zM318 135q43 -27 92 -27h107q49 3 84 21q89 40 105 140l135 755q5 32 -3 70z" />
<glyph unicode="&#xd9;" d="M164 224q0 24 3 45l181 1024h107l-180 -1024q-16 -162 135 -161h107q49 3 84 19q89 40 105 142l181 1024h107l-180 -1024q-65 -269 -315 -269h-108q-226 0 -227 224zM528 1725h108l51 -324h-108z" />
<glyph unicode="&#xda;" d="M164 224q0 24 3 45l181 1024h107l-180 -1024q-16 -162 135 -161h107q49 3 84 19q89 40 105 142l181 1024h107l-180 -1024q-65 -269 -315 -269h-108q-226 0 -227 224zM579 1401l165 324h108l-165 -324h-108z" />
<glyph unicode="&#xdb;" d="M164 224q0 24 3 45l181 1024h107l-180 -1024q-16 -162 135 -161h107q49 3 84 19q89 40 105 142l181 1024h107l-180 -1024q-65 -269 -315 -269h-108q-226 0 -227 224zM418 1401l272 324l159 -324h-108l-73 189l-143 -189h-107z" />
<glyph unicode="&#xdc;" d="M164 224q0 24 3 45l181 1024h107l-180 -1024q-16 -162 135 -161h107q49 3 84 19q89 40 105 142l181 1024h107l-180 -1024q-65 -269 -315 -269h-108q-226 0 -227 224zM383 1455l29 162h162l-30 -162h-161zM760 1455l30 162h161l-29 -162h-162z" />
<glyph unicode="&#xdd;" d="M329 1186l19 107h107l-18 -107l102 -647l329 647l19 107h107l-19 -107l-401 -755l-75 -431h-108l75 431zM579 1401l165 324h108l-165 -324h-108z" />
<glyph unicode="&#xde;" d="M102 0l227 1293h108l-38 -215h269q226 0 227 -224q0 -24 -3 -46l-59 -323q-65 -269 -316 -269h-269l-38 -216h-108zM267 323h269q49 3 84 19q89 41 105 143l59 323q3 19 3 35q0 119 -138 127h-269z" />
<glyph unicode="&#xdf;" d="M-62 -431l19 108q30 3 54 13q59 27 73 94l256 1456q67 269 315 269h108q226 0 226 -224q0 -24 -3 -45l-48 -270q-24 -146 -138 -215q67 -54 68 -157q0 -27 -6 -59l-48 -270q-65 -269 -315 -269h-162l19 108h161q49 3 84 19q89 40 105 142l49 270q3 19 2 35 q0 119 -135 127h-161l19 107h161q46 3 84 19q89 40 105 143l48 270q3 19 3 35q0 119 -137 126h-108q-148 0 -189 -161l-256 -1456q-54 -216 -253 -215z" />
<glyph unicode="&#xe0;" d="M164 224q0 24 3 45l97 539q43 251 315 270h108q137 -8 138 -127q0 -16 -3 -35l81 162h54l-189 -1078h-54l-27 162q-27 -151 -188 -162h-108q-226 0 -227 224zM272 234q0 -119 138 -126h107q149 -1 189 161l97 539q16 162 -135 162h-107q-151 0 -189 -162l-97 -539 q-3 -19 -3 -35zM509 1509h108l51 -323h-107z" />
<glyph unicode="&#xe1;" d="M164 224q0 24 3 45l97 539q43 251 315 270h108q137 -8 138 -127q0 -16 -3 -35l81 162h54l-189 -1078h-54l-27 162q-27 -151 -188 -162h-108q-226 0 -227 224zM272 234q0 -119 138 -126h107q149 -1 189 161l97 539q16 162 -135 162h-107q-151 0 -189 -162l-97 -539 q-3 -19 -3 -35zM561 1186l164 323h108l-165 -323h-107z" />
<glyph unicode="&#xe2;" d="M164 224q0 24 3 45l97 539q43 251 315 270h108q137 -8 138 -127q0 -16 -3 -35l81 162h54l-189 -1078h-54l-27 162q-27 -151 -188 -162h-108q-226 0 -227 224zM272 234q0 -119 138 -126h107q149 -1 189 161l97 539q16 162 -135 162h-107q-151 0 -189 -162l-97 -539 q-3 -19 -3 -35zM399 1186l272 323l159 -323h-108l-73 188l-142 -188h-108z" />
<glyph unicode="&#xe3;" d="M164 224q0 24 3 45l97 539q43 251 315 270h108q137 -8 138 -127q0 -16 -3 -35l81 162h54l-189 -1078h-54l-27 162q-27 -151 -188 -162h-108q-226 0 -227 224zM272 234q0 -119 138 -126h107q149 -1 189 161l97 539q16 162 -135 162h-107q-151 0 -189 -162l-97 -539 q-3 -19 -3 -35zM377 1240l8 37q8 54 49 97q51 51 124 52q73 0 121 -100q32 -62 65 -62q67 0 81 67l8 41h75l-5 -41q-11 -54 -51 -94q-49 -51 -122 -51q-75 0 -121 97q-32 65 -65 64q-70 0 -83 -70l-6 -37h-78z" />
<glyph unicode="&#xe4;" d="M164 224q0 24 3 45l97 539q43 251 315 270h108q137 -8 138 -127q0 -16 -3 -35l81 162h54l-189 -1078h-54l-27 162q-27 -151 -188 -162h-108q-226 0 -227 224zM272 234q0 -119 138 -126h107q149 -1 189 161l97 539q16 162 -135 162h-107q-151 0 -189 -162l-97 -539 q-3 -19 -3 -35zM364 1240l29 161h162l-30 -161h-161zM741 1240l30 161h161l-29 -161h-162z" />
<glyph unicode="&#xe5;" d="M164 224q0 24 3 45l97 539q43 251 315 270h108q137 -8 138 -127q0 -16 -3 -35l81 162h54l-189 -1078h-54l-27 162q-27 -151 -188 -162h-108q-226 0 -227 224zM272 234q0 -119 138 -126h107q149 -1 189 161l97 539q16 162 -135 162h-107q-151 0 -189 -162l-97 -539 q-3 -19 -3 -35zM482 1347q11 67 67.5 114.5t121.5 47.5q67 0 106.5 -47t28.5 -115q-13 -67 -68.5 -114t-123.5 -47q-67 0 -106 47t-26 114zM542 1347q-5 -43 19 -72.5t64 -29.5q43 0 78 29.5t41 72.5q8 43 -16.5 71.5t-67.5 28.5q-40 0 -75 -28.5t-43 -71.5z" />
<glyph unicode="&#xe6;" horiz-adv-x="2155" d="M164 224q0 24 3 45l97 539q43 251 315 270h108q137 -8 138 -127q0 -16 -3 -35l81 162h54l-189 -1078h-54l-27 162q-27 -151 -188 -162h-108q-226 0 -227 224zM272 234q0 -119 138 -126h107q149 -1 189 161l97 539q16 162 -135 162h-107q-151 0 -189 -162l-97 -539 q-3 -19 -3 -35zM1242 224q0 24 3 45l97 539q65 269 315 270h108q226 0 226 -224q0 -24 -2 -46l-60 -323h-539l-37 -216q-16 -162 134 -161h108q49 3 84 21q89 40 105 140l11 54h107l-10 -54q-65 -269 -316 -269h-107q-226 0 -227 224zM1412 593h431l38 215q3 19 3 35 q0 119 -138 127h-108q-150 0 -188 -162z" />
<glyph unicode="&#xe7;" d="M164 224q0 24 3 45l97 539q65 269 315 270h108q226 0 227 -224q0 -24 -3 -46l-19 -107h-108l19 107q3 19 3 35q0 119 -138 127h-107q-151 0 -189 -162l-97 -539q-16 -162 135 -161h107q49 3 84 19q89 40 105 142l19 108h108l-19 -108q-65 -269 -315 -269h-108 q-226 0 -227 224zM172 -323l19 107h54q32 3 57 14q59 27 70 94l19 108h108l-19 -108q-54 -216 -254 -215h-54z" />
<glyph unicode="&#xe8;" d="M164 224q0 24 3 45l97 539q65 269 315 270h108q226 0 227 -224q0 -24 -3 -46l-59 -323h-539l-38 -216q-16 -162 135 -161h107q49 3 84 19q89 40 105 142l11 54h108l-11 -54q-65 -269 -315 -269h-108q-226 0 -227 224zM334 593h431l38 215q3 19 3 35q0 119 -138 127h-107 q-151 0 -189 -162zM509 1509h108l51 -323h-107z" />
<glyph unicode="&#xe9;" d="M164 224q0 24 3 45l97 539q65 269 315 270h108q226 0 227 -224q0 -24 -3 -46l-59 -323h-539l-38 -216q-16 -162 135 -161h107q49 3 84 19q89 40 105 142l11 54h108l-11 -54q-65 -269 -315 -269h-108q-226 0 -227 224zM334 593h431l38 215q3 19 3 35q0 119 -138 127h-107 q-151 0 -189 -162zM561 1186l164 323h108l-165 -323h-107z" />
<glyph unicode="&#xea;" d="M164 224q0 24 3 45l97 539q65 269 315 270h108q226 0 227 -224q0 -24 -3 -46l-59 -323h-539l-38 -216q-16 -162 135 -161h107q49 3 84 19q89 40 105 142l11 54h108l-11 -54q-65 -269 -315 -269h-108q-226 0 -227 224zM334 593h431l38 215q3 19 3 35q0 119 -138 127h-107 q-151 0 -189 -162zM399 1186l272 323l159 -323h-108l-73 188l-142 -188h-108z" />
<glyph unicode="&#xeb;" d="M164 224q0 24 3 45l97 539q65 269 315 270h108q226 0 227 -224q0 -24 -3 -46l-59 -323h-539l-38 -216q-16 -162 135 -161h107q49 3 84 19q89 40 105 142l11 54h108l-11 -54q-65 -269 -315 -269h-108q-226 0 -227 224zM334 593h431l38 215q3 19 3 35q0 119 -138 127h-107 q-151 0 -189 -162zM364 1240l29 161h162l-30 -161h-161zM741 1240l30 161h161l-29 -161h-162z" />
<glyph unicode="&#xec;" d="M121 0l19 108h270l151 862h-216l19 108h323l-170 -970h270l-19 -108h-647zM509 1509h108l51 -323h-107z" />
<glyph unicode="&#xed;" d="M121 0l19 108h270l151 862h-216l19 108h323l-170 -970h270l-19 -108h-647zM561 1186l164 323h108l-165 -323h-107z" />
<glyph unicode="&#xee;" d="M121 0l19 108h270l151 862h-216l19 108h323l-170 -970h270l-19 -108h-647zM399 1186l272 323l159 -323h-108l-73 188l-142 -188h-108z" />
<glyph unicode="&#xef;" d="M121 0l19 108h270l151 862h-216l19 108h323l-170 -970h270l-19 -108h-647zM364 1240l29 161h162l-30 -161h-161zM741 1240l30 161h161l-29 -161h-162z" />
<glyph unicode="&#xf0;" d="M164 224q0 24 3 45l78 432q65 269 316 269h269l19 108q8 38 8 73q0 132 -100 199l-170 -261l-56 29l167 262q-65 22 -116 21h-162l19 108h162q73 0 159 -32l83 129l60 -30l-84 -126q148 -89 148 -275q0 -46 -10 -97l-143 -809q-65 -269 -315 -269h-108q-226 0 -227 224z M272 234q0 -119 138 -126h107q151 -1 189 161l105 593h-269q-49 -3 -84 -21q-89 -40 -105 -140l-78 -432q-3 -19 -3 -35z" />
<glyph unicode="&#xf1;" d="M121 0l189 1078h54l27 -162q27 151 188 162h108q226 0 227 -224q0 -24 -3 -46l-143 -808h-108l143 808q3 19 3 35q0 119 -138 127h-107q-151 0 -189 -162l-143 -808h-108zM377 1240l8 37q8 54 49 97q51 51 124 52q73 0 121 -100q32 -62 65 -62q67 0 81 67l8 41h75l-5 -41 q-11 -54 -51 -94q-49 -51 -122 -51q-75 0 -121 97q-32 65 -65 64q-70 0 -83 -70l-6 -37h-78z" />
<glyph unicode="&#xf2;" d="M164 224q0 24 3 45l97 539q65 269 315 270h108q226 0 227 -224q0 -24 -3 -46l-97 -539q-65 -269 -315 -269h-108q-226 0 -227 224zM275 269q-16 -162 135 -161h107q49 3 84 19q89 40 105 142l97 539q3 19 3 35q0 119 -138 127h-107q-151 0 -189 -162zM509 1509h108 l51 -323h-107z" />
<glyph unicode="&#xf3;" d="M164 224q0 24 3 45l97 539q65 269 315 270h108q226 0 227 -224q0 -24 -3 -46l-97 -539q-65 -269 -315 -269h-108q-226 0 -227 224zM275 269q-16 -162 135 -161h107q49 3 84 19q89 40 105 142l97 539q3 19 3 35q0 119 -138 127h-107q-151 0 -189 -162zM561 1186l164 323 h108l-165 -323h-107z" />
<glyph unicode="&#xf4;" d="M164 224q0 24 3 45l97 539q65 269 315 270h108q226 0 227 -224q0 -24 -3 -46l-97 -539q-65 -269 -315 -269h-108q-226 0 -227 224zM275 269q-16 -162 135 -161h107q49 3 84 19q89 40 105 142l97 539q3 19 3 35q0 119 -138 127h-107q-151 0 -189 -162zM399 1186l272 323 l159 -323h-108l-73 188l-142 -188h-108z" />
<glyph unicode="&#xf5;" d="M164 224q0 24 3 45l97 539q65 269 315 270h108q226 0 227 -224q0 -24 -3 -46l-97 -539q-65 -269 -315 -269h-108q-226 0 -227 224zM275 269q-16 -162 135 -161h107q49 3 84 19q89 40 105 142l97 539q3 19 3 35q0 119 -138 127h-107q-151 0 -189 -162zM377 1240l8 37 q8 54 49 97q51 51 124 52q73 0 121 -100q32 -62 65 -62q67 0 81 67l8 41h75l-5 -41q-11 -54 -51 -94q-49 -51 -122 -51q-75 0 -121 97q-32 65 -65 64q-70 0 -83 -70l-6 -37h-78z" />
<glyph unicode="&#xf6;" d="M164 224q0 24 3 45l97 539q65 269 315 270h108q226 0 227 -224q0 -24 -3 -46l-97 -539q-65 -269 -315 -269h-108q-226 0 -227 224zM275 269q-16 -162 135 -161h107q49 3 84 19q89 40 105 142l97 539q3 19 3 35q0 119 -138 127h-107q-151 0 -189 -162zM364 1240l29 161 h162l-30 -161h-161zM741 1240l30 161h161l-29 -161h-162z" />
<glyph unicode="&#xf7;" d="M205 485l21 108h647l-21 -108h-647zM428 216l19 107h108l-19 -107h-108zM523 755l19 107h107l-18 -107h-108z" />
<glyph unicode="&#xf8;" d="M135 -46l75 121q-46 51 -46 135q0 27 6 59l94 539q67 269 318 270h108q70 0 140 -41l57 89l56 -29l-65 -103q40 -51 41 -126q0 -27 -8 -60l-94 -539q-67 -269 -316 -269h-108q-65 0 -132 35l-70 -110zM278 269q-8 -49 5 -83l482 754q-32 30 -94 30h-108q-151 0 -191 -162 zM326 135q40 -27 86 -27h108q46 3 84 19q89 40 105 142l94 539q5 30 0 68z" />
<glyph unicode="&#xf9;" d="M164 224q0 24 3 45l143 809h108l-143 -809q-3 -19 -3 -35q0 -119 138 -126h107q148 0 189 161l143 809h108l-189 -1078h-54l-27 162q-27 -151 -188 -162h-108q-226 0 -227 224zM509 1509h108l51 -323h-107z" />
<glyph unicode="&#xfa;" d="M164 224q0 24 3 45l143 809h108l-143 -809q-3 -19 -3 -35q0 -119 138 -126h107q148 0 189 161l143 809h108l-189 -1078h-54l-27 162q-27 -151 -188 -162h-108q-226 0 -227 224zM561 1186l164 323h108l-165 -323h-107z" />
<glyph unicode="&#xfb;" d="M164 224q0 24 3 45l143 809h108l-143 -809q-3 -19 -3 -35q0 -119 138 -126h107q148 0 189 161l143 809h108l-189 -1078h-54l-27 162q-27 -151 -188 -162h-108q-226 0 -227 224zM399 1186l272 323l159 -323h-108l-73 188l-142 -188h-108z" />
<glyph unicode="&#xfc;" d="M164 224q0 24 3 45l143 809h108l-143 -809q-3 -19 -3 -35q0 -119 138 -126h107q148 0 189 161l143 809h108l-189 -1078h-54l-27 162q-27 -151 -188 -162h-108q-226 0 -227 224zM364 1240l29 161h162l-30 -161h-161zM741 1240l30 161h161l-29 -161h-162z" />
<glyph unicode="&#xfd;" d="M46 -431l19 108h107q148 0 189 161l30 162l-100 970l19 108h108l-19 -108l64 -862l367 862l19 108h108l-19 -108l-439 -970l-30 -162q-67 -269 -315 -269h-108zM598 1186l165 323h107l-164 -323h-108z" />
<glyph unicode="&#xfe;" d="M46 -431l339 1940h108l-102 -593q27 151 188 162h108q226 0 227 -224q0 -24 -3 -46l-97 -539q-43 -251 -315 -269h-270l-75 -431h-108zM248 108h269q151 0 189 161l97 539q3 19 3 35q0 119 -138 127h-107q-149 0 -189 -162z" />
<glyph unicode="&#xff;" d="M46 -431l19 108h107q148 0 189 161l30 162l-100 970l19 108h108l-19 -108l64 -862l367 862l19 108h108l-19 -108l-439 -970l-30 -162q-67 -269 -315 -269h-108zM402 1240l29 161h162l-30 -161h-161zM779 1240l29 161h162l-30 -161h-161z" />
<glyph unicode="&#x152;" horiz-adv-x="2155" d="M164 224q0 24 3 45l135 755q67 269 315 269h108q226 0 226 -223q0 -24 -2 -46l-135 -755q-65 -269 -315 -269h-108q-226 0 -227 224zM275 269q-16 -162 135 -161h107q49 3 84 21q89 40 105 140l135 755q3 19 2 35q0 119 -137 127h-108q-148 0 -188 -162zM1234 0l227 1293 h538l-18 -107h-432l-83 -485h377l-21 -108h-378l-83 -485h431l-19 -108h-539z" />
<glyph unicode="&#x153;" horiz-adv-x="2155" d="M164 224q0 24 3 45l97 539q65 269 315 270h108q226 0 227 -224q0 -24 -3 -46l-97 -539q-65 -269 -315 -269h-108q-226 0 -227 224zM275 269q-16 -162 135 -161h107q49 3 84 19q89 40 105 142l97 539q3 19 3 35q0 119 -138 127h-107q-151 0 -189 -162zM1242 224q0 24 3 45 l97 539q65 269 315 270h108q226 0 226 -224q0 -24 -2 -46l-60 -323h-539l-37 -216q-16 -162 134 -161h108q49 3 84 21q89 40 105 140l11 54h107l-10 -54q-65 -269 -316 -269h-107q-226 0 -227 224zM1412 593h431l38 215q3 19 3 35q0 119 -138 127h-108q-150 0 -188 -162z " />
<glyph unicode="&#x178;" d="M329 1186l19 107h107l-18 -107l102 -647l329 647l19 107h107l-19 -107l-401 -755l-75 -431h-108l75 431zM383 1455l29 162h162l-30 -162h-161zM760 1455l30 162h161l-29 -162h-162z" />
<glyph unicode="&#x2c6;" d="M323 1186l273 323l159 -323h-108l-76 188l-140 -188h-108z" />
<glyph unicode="&#x2dc;" d="M272 1240l8 37q8 54 49 97q51 51 124 52q73 0 121 -100q32 -62 65 -62q67 0 80 67l9 41h78l-8 -41q-8 -54 -49 -94q-51 -51 -124 -51t-121 97q-32 65 -65 64q-67 0 -81 -70l-8 -37h-78z" />
<glyph unicode="&#x2000;" horiz-adv-x="862" />
<glyph unicode="&#x2001;" horiz-adv-x="1725" />
<glyph unicode="&#x2002;" horiz-adv-x="862" />
<glyph unicode="&#x2003;" horiz-adv-x="1725" />
<glyph unicode="&#x2004;" horiz-adv-x="575" />
<glyph unicode="&#x2005;" horiz-adv-x="431" />
<glyph unicode="&#x2006;" horiz-adv-x="287" />
<glyph unicode="&#x2007;" horiz-adv-x="287" />
<glyph unicode="&#x2008;" horiz-adv-x="215" />
<glyph unicode="&#x2009;" horiz-adv-x="345" />
<glyph unicode="&#x200a;" horiz-adv-x="95" />
<glyph unicode="&#x2010;" d="M205 485l21 108h647l-21 -108h-647z" />
<glyph unicode="&#x2011;" d="M205 485l21 108h647l-21 -108h-647z" />
<glyph unicode="&#x2012;" d="M205 485l21 108h647l-21 -108h-647z" />
<glyph unicode="&#x2013;" d="M259 485l21 108h539l-21 -108h-539z" />
<glyph unicode="&#x2014;" d="M97 485l22 108h862l-22 -108h-862z" />
<glyph unicode="&#x2018;" d="M426 916l172 377h54l-65 -377h-161z" />
<glyph unicode="&#x2019;" d="M426 916l64 377h162l-172 -377h-54z" />
<glyph unicode="&#x201a;" d="M426 -216l64 378h162l-172 -378h-54z" />
<glyph unicode="&#x201c;" d="M237 916l173 377h53l-64 -377h-162zM614 916l173 377h54l-65 -377h-162z" />
<glyph unicode="&#x201d;" d="M237 916l65 377h161l-172 -377h-54zM614 916l65 377h162l-173 -377h-54z" />
<glyph unicode="&#x201e;" d="M237 -216l65 378h161l-172 -378h-54zM614 -216l65 378h162l-173 -378h-54z" />
<glyph unicode="&#x2022;" d="M404 539q11 57 57 96t102 39q57 0 89.5 -39t21.5 -96t-57 -96t-102 -39q-57 0 -89.5 39t-21.5 96z" />
<glyph unicode="&#x2026;" d="M148 3l27 161h162l-27 -161h-162zM445 3l27 161h161l-27 -161h-161zM741 3l27 161h162l-27 -161h-162z" />
<glyph unicode="&#x202f;" horiz-adv-x="345" />
<glyph unicode="&#x2039;" d="M318 539l334 377h108l-334 -377l202 -377h-108z" />
<glyph unicode="&#x203a;" d="M318 162l334 377l-202 377h108l202 -377l-334 -377h-108z" />
<glyph unicode="&#x205f;" horiz-adv-x="431" />
<glyph unicode="&#x2122;" d="M156 1221l11 72h288l-13 -72h-108l-91 -520h-71l92 520h-108zM388 701l102 592h108l38 -396l178 396h108l-103 -592h-73l92 520l-232 -502l-56 502l-92 -520h-70z" />
<glyph unicode="&#x25fc;" d="M0 0v1078h1078v-1078h-1078z" />
</font>
</defs>
</svg>
