<?xml version="1.0" standalone="no"?>
<!DOCTYPE svg PUBLIC "-//W3C//DTD SVG 1.1//EN" "http://www.w3.org/Graphics/SVG/1.1/DTD/svg11.dtd" >
<svg xmlns="http://www.w3.org/2000/svg">
<metadata></metadata>
<defs>
<font id="audimat_monoregular" horiz-adv-x="1077" >
<font-face units-per-em="2048" ascent="1638" descent="-410" />
<missing-glyph horiz-adv-x="500" />
<glyph horiz-adv-x="0" />
<glyph unicode="&#xd;" />
<glyph unicode=" " />
<glyph unicode="!" d="M431 0v216h216v-216h-216zM431 1078v215h216v-215l-54 -647h-108z" />
<glyph unicode="&#x22;" d="M216 1078v215h215v-215l-54 -270h-108zM593 1078v215h215v-215l-53 -270h-108z" />
<glyph unicode="#" d="M162 431v108h148l27 216h-175v107h188l27 216h108l-27 -216h216l27 216h107l-27 -216h135v-107h-148l-27 -216h175v-108h-188l-27 -215h-108l27 215h-216l-27 -215h-108l27 215h-134zM418 539h215l27 216h-215z" />
<glyph unicode="$" d="M162 323v54h215v-108q8 -108 108 -107h108q108 8 108 107v216q0 100 -108 108h-108q-202 0 -283 162q-32 67 -40 161v54q0 202 161 283q67 32 162 40h11v108h86v-108h11q202 0 283 -161q32 -67 40 -162v-54h-215v108q0 100 -108 108h-108q-100 0 -108 -108v-162 q0 -100 108 -107h108q202 0 283 -162q32 -67 40 -162v-108q-8 -94 -40 -161q-81 -162 -283 -162h-11v-108h-86v108h-11q-94 5 -162 40q-162 81 -161 283z" />
<glyph unicode="%" d="M127 296l762 763l62 -62l-762 -763zM162 1051v54q0 78 55 133t133 55t133.5 -55t55.5 -133v-54q0 -78 -55.5 -133.5t-133.5 -55.5t-133 55.5t-55 133.5zM269 1024q0 -32 24.5 -56.5t56.5 -24.5t56.5 24.5t24.5 56.5v108q0 32 -24 56.5t-57 24.5q-32 0 -56.5 -24.5 t-24.5 -56.5v-108zM539 189v54q0 78 55.5 133t133.5 55t133 -55t55 -133v-54q0 -78 -55 -133.5t-133 -55.5t-133.5 55t-55.5 134zM647 162q0 -32 24 -56.5t57 -24.5q32 0 56 24.5t24 56.5v107q0 32 -24 56.5t-56 24.5t-56.5 -24t-24.5 -57v-107z" />
<glyph unicode="&#x26;" d="M162 323v162q0 213 191 302l-191 345v161h754v-431h-215v270h-324l539 -970v-162h-215v162l-264 474q-59 -27 -60 -97v-270q0 -100 108 -107h108v-162h-108q-202 0 -283 162q-32 67 -40 161z" />
<glyph unicode="'" d="M404 1078v215h216v-215l-54 -270h-108z" />
<glyph unicode="(" d="M269 108v862q0 202 162 283q68 32 162 40h215v-161h-215q-100 0 -108 -108v-970q8 -108 108 -108h215v-162h-215q-94 8 -162 41q-162 81 -162 283z" />
<glyph unicode=")" d="M269 -54h216q100 0 108 108v970q-8 108 -108 108h-216v161h216q94 -8 162 -40q162 -81 161 -283v-862q0 -202 -161 -283q-67 -32 -162 -41h-216v162z" />
<glyph unicode="*" d="M221 1029l30 87l242 -81v258h92v-258l245 81l30 -87l-246 -80l151 -208l-72 -54l-154 208l-151 -208l-73 54l151 208z" />
<glyph unicode="+" d="M162 458v162h296v296h162v-296h296v-162h-296v-296h-162v296h-296z" />
<glyph unicode="," d="M431 216h216l-162 -432h-54v432z" />
<glyph unicode="-" d="M162 458v162h754v-162h-754z" />
<glyph unicode="." d="M431 0v216h216v-216h-216z" />
<glyph unicode="/" d="M162 54l593 1078v161h161v-161l-593 -1078v-162h-161v162z" />
<glyph unicode="0" d="M162 377v539q0 156 110.5 266.5t266.5 110.5t266.5 -110t110.5 -267v-539q0 -156 -110.5 -266.5t-266.5 -110.5t-266.5 110.5t-110.5 266.5zM377 323q0 -67 47.5 -114t114.5 -47t114.5 47t47.5 114v647q0 67 -47.5 114.5t-114.5 47.5t-114.5 -47.5t-47.5 -114.5v-647z " />
<glyph unicode="1" d="M216 0v162h215v916h-215v162l431 53v-1131h215v-162h-646z" />
<glyph unicode="2" d="M162 0v377q8 94 40 162q81 162 283 162h108q108 8 108 107v216q-8 108 -108 108h-108q-108 -8 -108 -108v-108h-215v54q8 94 40 162q81 162 283 161h108q94 -8 162 -40q162 -81 161 -283v-108q-8 -94 -40 -161q-81 -162 -283 -162h-108q-108 -8 -108 -108v-269h539v-162 h-754z" />
<glyph unicode="3" d="M162 323v54h215v-108q8 -108 108 -107h108q108 8 108 107v216q-8 108 -108 108h-162v162h162q108 8 108 107v162q-8 108 -108 108h-108q-108 -8 -108 -108v-108h-215v54q8 94 40 162q81 162 283 161h108q94 -8 162 -40q162 -81 161 -283v-54q0 -175 -172 -240 q172 -81 172 -245v-108q-8 -94 -40 -161q-81 -162 -283 -162h-108q-94 5 -162 40q-162 81 -161 283z" />
<glyph unicode="4" d="M108 323v162l485 808h215v-808h108v-162h-108v-323h-215v323h-485zM269 485h324v539z" />
<glyph unicode="5" d="M162 323v54h215v-108q8 -108 108 -107h108q108 8 108 107v270q0 100 -108 108h-431v646h754v-161h-539v-324h216q202 0 283 -161q32 -67 40 -162v-162q-8 -94 -40 -161q-81 -162 -283 -162h-108q-94 5 -162 40q-162 81 -161 283z" />
<glyph unicode="6" d="M162 323v647q8 94 40 162q81 162 283 161h431v-161h-431q-100 0 -108 -108v-216h216q202 0 283 -161q32 -67 40 -162v-162q-8 -94 -40 -161q-81 -162 -283 -162h-108q-94 5 -162 40q-161 81 -161 283zM377 269q8 -108 108 -107h108q108 8 108 107v270q0 100 -108 108 h-216v-378z" />
<glyph unicode="7" d="M162 1132v161h754v-161l-323 -970v-162h-216v162l324 970h-539z" />
<glyph unicode="8" d="M162 323v108q0 164 172 245q-172 65 -172 240v54q0 202 161 283q67 32 162 40h108q94 -8 162 -40q162 -81 161 -283v-54q0 -175 -172 -240q172 -81 172 -245v-108q-8 -94 -40 -161q-81 -162 -283 -162h-108q-202 0 -283 162q-32 67 -40 161zM377 269q0 -100 108 -107h108 q108 7 108 107v216q-8 108 -108 108h-108q-100 0 -108 -108v-216zM377 862q0 -100 108 -107h108q108 7 108 107v162q-8 108 -108 108h-108q-100 0 -108 -108v-162z" />
<glyph unicode="9" d="M162 0v162h431q100 0 108 107v216h-216q-202 0 -283 162q-32 67 -40 161v162q8 94 40 162q81 162 283 161h108q94 -8 162 -40q161 -81 161 -283v-647q-8 -94 -40 -161q-81 -162 -283 -162h-431zM377 755q0 -100 108 -108h216v377q-8 108 -108 108h-108q-108 -8 -108 -108 v-269z" />
<glyph unicode=":" d="M431 0v216h216v-216h-216zM431 755v215h216v-215h-216z" />
<glyph unicode=";" d="M431 216h216l-162 -432h-54v432zM431 755v215h216v-215h-216z" />
<glyph unicode="&#x3c;" d="M162 485v108l754 485v-178l-576 -361l576 -361v-178z" />
<glyph unicode="=" d="M162 269v162h754v-162h-754zM162 647v161h754v-161h-754z" />
<glyph unicode="&#x3e;" d="M162 0v178l576 361l-576 361v178l754 -485v-108z" />
<glyph unicode="?" d="M162 916v54q8 94 40 162q81 162 283 161h108q94 -8 162 -40q162 -81 161 -283v-108q0 -269 -269 -318v-113h-216v270h162q108 8 108 107v216q-8 108 -108 108h-108q-108 -8 -108 -108v-108h-215zM431 0v216h216v-216h-216z" />
<glyph unicode="@" d="M108 269v216q19 269 269 270h270v-593h54q108 8 107 107v539q-8 108 -107 108h-593v162h593q269 -19 269 -270v-539q-19 -269 -269 -269h-162l-54 108q-8 -108 -108 -108q-251 0 -269 269zM269 269q0 -100 108 -107h54q49 0 54 54v377h-108q-100 0 -108 -108v-216z" />
<glyph unicode="A" d="M162 0v162l269 1131h216l269 -1131v-162h-215v162l-46 269h-232l-46 -269v-162h-215zM450 593h178l-89 539z" />
<glyph unicode="B" d="M162 0v1293h377q202 0 283 -161q32 -67 40 -162v-54q1 -140 -126 -199q181 -102 180 -286v-108q0 -202 -161 -283q-67 -32 -162 -40h-431zM377 162h216h2q98 0 106 107v216q0 100 -108 108h-216v-431zM377 755h162q100 0 108 107v162q0 100 -108 108h-162v-377z" />
<glyph unicode="C" d="M162 323v647q0 202 161 283q67 32 162 40h108q202 0 283 -161q32 -68 40 -162v-54h-215v108q0 100 -108 108h-108q-100 0 -108 -108v-755q0 -100 108 -107h108q100 0 108 107v108h215v-54q0 -202 -161 -283q-67 -35 -162 -40h-108q-202 0 -283 162q-32 67 -40 161z" />
<glyph unicode="D" d="M162 0v1293h431q202 0 283 -161q32 -67 40 -162v-647q0 -202 -161 -283q-67 -32 -162 -40h-431zM377 162h216h2q98 0 106 107v755q0 100 -108 108h-216v-970z" />
<glyph unicode="E" d="M216 0v1293h646v-161h-431v-377h377v-162h-377v-431h431v-162h-646z" />
<glyph unicode="F" d="M216 0v1293h646v-161h-431v-377h377v-162h-377v-593h-215z" />
<glyph unicode="G" d="M162 323v647q0 202 161 283q67 32 162 40h108q202 0 283 -161q32 -67 40 -162v-54h-215v108q0 100 -108 108h-108q-100 0 -108 -108v-755q0 -100 108 -107h108q100 0 108 107v270h-162v162h377v-378q0 -202 -161 -283q-67 -32 -162 -40h-108q-202 0 -283 162 q-32 67 -40 161z" />
<glyph unicode="H" d="M162 0v1293h215v-538h324v538h215v-1293h-215v593h-324v-593h-215z" />
<glyph unicode="I" d="M216 0v162h215v970h-215v161h646v-161h-215v-970h215v-162h-646z" />
<glyph unicode="J" d="M162 323v54h215v-108q8 -107 106 -107h2h108q108 8 108 107v863h-485v161h700v-970q-8 -94 -40 -161q-81 -162 -283 -162h-108q-94 5 -162 40q-162 81 -161 283z" />
<glyph unicode="K" d="M162 0v1293h215v-592h89l235 431v161h215v-161l-242 -439q242 -68 242 -316v-377h-215v431q-8 108 -108 108h-216v-539h-215z" />
<glyph unicode="L" d="M269 0v1293h216v-1131h431v-162h-647z" />
<glyph unicode="M" d="M162 0v1293h269l108 -431l108 431h269v-1293h-215v1078l-162 -647l-162 647v-1078h-215z" />
<glyph unicode="N" d="M162 0v1293h215v-161l324 -647v808h215v-1293h-215v162l-324 646v-808h-215z" />
<glyph unicode="O" d="M162 323v647q0 202 161 283q67 32 162 40h108q202 0 283 -161q32 -67 40 -162v-647q0 -202 -161 -283q-67 -32 -162 -40h-108q-202 0 -283 162q-32 67 -40 161zM377 269q0 -100 108 -107h108h2q98 0 106 107v755q0 100 -108 108h-108q-100 0 -108 -108v-755z" />
<glyph unicode="P" d="M162 0v1293h431q202 0 283 -161q32 -67 40 -162v-162q0 -202 -161 -283q-67 -35 -162 -40h-216v-485h-215zM377 647h216q100 0 108 108v269q0 100 -108 108h-216v-485z" />
<glyph unicode="Q" d="M162 318v647q0 202 161 283q67 32 162 40h108q202 0 283 -162q32 -67 40 -161v-647q0 -253 -250 -318l89 -221h-216l-86 218q-105 11 -178 68q-113 84 -113 253zM377 264q0 -102 108 -108h108q100 0 108 108v755q0 100 -108 107h-108q-100 0 -108 -107v-755z" />
<glyph unicode="R" d="M162 0v1293h431q202 0 283 -161q32 -67 40 -162v-54q0 -248 -242 -315l242 -439v-162h-215v162l-235 431h-89v-593h-215zM377 755h216h2q98 0 106 107v162q0 100 -108 108h-216v-377z" />
<glyph unicode="S" d="M162 323v54h215v-108q8 -107 106 -107h2h108q108 8 108 107v216q0 100 -108 108h-108q-202 0 -283 162q-32 67 -40 161v54q0 202 161 283q67 32 162 40h108q202 0 283 -161q32 -67 40 -162v-54h-215v108q0 100 -108 108h-108q-100 0 -108 -108v-162q0 -100 108 -107h108 q202 0 283 -162q32 -67 40 -162v-108q-8 -94 -40 -161q-81 -162 -283 -162h-108q-94 5 -162 40q-162 81 -161 283z" />
<glyph unicode="T" d="M108 1132v161h862v-161h-323v-1132h-216v1132h-323z" />
<glyph unicode="U" d="M162 323v970h215v-1024q0 -100 108 -107h108q100 0 108 107v1024h215v-970q0 -202 -161 -283q-67 -32 -162 -40h-108q-202 0 -283 162q-32 67 -40 161z" />
<glyph unicode="V" d="M162 1132v161h215v-161l162 -970l162 970v161h215v-161l-269 -1132h-216z" />
<glyph unicode="W" d="M162 1132v161h215v-161l38 -701l124 216l124 -216l38 701v161h215v-161l-108 -970v-162h-161v108l-108 215l-108 -215v-108h-162v162z" />
<glyph unicode="X" d="M162 0v162l202 485l-202 485v161h215v-161l162 -431l162 431v161h215v-161l-202 -485l202 -485v-162h-215v162l-162 431l-162 -431v-162h-215z" />
<glyph unicode="Y" d="M162 1132v161h215v-161l162 -539l162 539v161h215v-161l-269 -701v-431h-216v431z" />
<glyph unicode="Z" d="M162 0v162l485 970h-485v161h700v-161l-485 -970h485v-162h-700z" />
<glyph unicode="[" d="M269 -216v1509h539v-161h-323v-1186h323v-162h-539z" />
<glyph unicode="\" d="M162 1132v161h161v-161l593 -1078v-162h-161v162z" />
<glyph unicode="]" d="M269 -54h324v1186h-324v161h539v-1509h-539v162z" />
<glyph unicode="^" d="M216 323l269 432h108l269 -432h-161l-162 270l-162 -270h-161z" />
<glyph unicode="_" d="M54 0v162h970v-162h-970z" />
<glyph unicode="`" d="M350 1509h162l108 -323h-162z" />
<glyph unicode="a" d="M162 323q8 94 40 162q81 162 283 162h216v161q-8 108 -108 108h-377v162h377q202 0 283 -162q32 -67 40 -161v-755h-161l-54 162q-11 -162 -162 -162h-54q-202 0 -283 162q-32 67 -40 161zM377 269q0 -100 108 -107h108q100 0 108 107v216h-216q-100 0 -108 -108v-108z " />
<glyph unicode="b" d="M162 0v1509h215v-593q0 151 162 162h54q202 0 283 -162q32 -67 40 -161v-432q-8 -94 -40 -161q-81 -162 -283 -162h-431zM377 162h216h2q98 0 106 107v539q0 100 -108 108h-108q-100 0 -108 -108v-646z" />
<glyph unicode="c" d="M162 323v432q0 202 161 282q67 32 162 41h108q202 0 283 -162q32 -67 40 -161v-54h-215v107q0 100 -108 108h-108q-100 0 -108 -108v-539q0 -100 108 -107h108q100 0 108 107v108h215v-54q0 -202 -161 -283q-67 -35 -162 -40h-108q-202 0 -283 162q-32 67 -40 161z" />
<glyph unicode="d" d="M162 323v432q8 94 40 161q81 162 283 162h216v431h215v-1509h-161l-54 162q0 -151 -162 -162h-54q-202 0 -283 162q-32 67 -40 161zM377 269q0 -100 108 -107h108q100 0 108 107v647h-216q-100 0 -108 -108v-539z" />
<glyph unicode="e" d="M162 323v432q0 202 161 282q67 32 162 41h108q202 0 283 -162q32 -67 40 -161v-270h-539v-216q0 -100 108 -107h108q100 0 108 107v54h215q0 -202 -161 -283q-67 -35 -162 -40h-108q-202 0 -283 162q-32 67 -40 161zM377 647h324v161q-8 108 -108 108h-108 q-100 0 -108 -108v-161z" />
<glyph unicode="f" d="M162 0v162h215v700h-161v162h161v162q0 202 162 283q67 35 162 40h215v-162h-215q-100 0 -108 -107v-216h269v-162h-269v-700h323v-162h-754z" />
<glyph unicode="g" d="M162 323v432q8 94 40 161q81 162 283 162h431v-1186q-8 -94 -40 -161q-81 -162 -283 -162h-377v162h377q108 8 108 107v324q0 -151 -162 -162h-54q-202 0 -283 162q-32 67 -40 161zM377 269q0 -100 108 -107h108h2q98 0 106 107v647h-216q-100 0 -108 -108v-539z" />
<glyph unicode="h" d="M162 0v1509h215v-593q0 151 162 162h54q202 0 283 -162q32 -67 40 -161v-755h-215v808q0 100 -108 108h-108q-100 0 -108 -108v-808h-215z" />
<glyph unicode="i" d="M162 0v162h269v754h-215v162h431v-916h269v-162h-754zM431 1293v216h216v-216h-216z" />
<glyph unicode="j" d="M162 -269h161q100 0 108 107v1078h-269v162h754v-162h-269v-1024q0 -202 -162 -283q-67 -32 -162 -40h-161v162zM431 1293v216h216v-216h-216z" />
<glyph unicode="k" d="M162 0v1509h215v-808h135l189 377h215l-199 -402q199 -73 199 -299v-377h-215v431q0 100 -108 108h-216v-539h-215z" />
<glyph unicode="l" d="M162 0v162h269v1185h-269v162h485v-1347h269v-162h-754z" />
<glyph unicode="m" d="M108 0v1078h116l56 -135q11 135 143 135q135 0 183 -105q43 105 162 105q202 -13 202 -189v-889h-172v835q0 75 -87 81q-86 -5 -86 -81v-835h-172v835q0 75 -87 81q-86 -5 -86 -81v-835h-172z" />
<glyph unicode="n" d="M162 0v1078h161l54 -162q0 151 162 162h54q202 0 283 -162q32 -67 40 -161v-755h-215v808q0 100 -108 108h-108q-100 0 -108 -108v-808h-215z" />
<glyph unicode="o" d="M162 323v432q0 202 161 282q67 35 162 41h108q202 0 283 -162q32 -67 40 -161v-432q0 -202 -161 -283q-67 -32 -162 -40h-108q-202 0 -283 162q-32 67 -40 161zM377 269q0 -100 108 -107h108h2q98 0 106 107v539q0 100 -108 108h-108q-100 0 -108 -108v-539z" />
<glyph unicode="p" d="M162 -431v1509h161l54 -162q0 151 162 162h54q202 0 283 -162q32 -67 40 -161v-432q-8 -94 -40 -161q-81 -162 -283 -162h-216v-431h-215zM377 162h216h2q98 0 106 107v539q0 100 -108 108h-108q-100 0 -108 -108v-646z" />
<glyph unicode="q" d="M162 323v432q8 94 40 161q81 162 283 162h431v-1509h-215v593q0 -151 -162 -162h-54q-202 0 -283 162q-32 67 -40 161zM377 269q0 -100 108 -107h108q100 0 108 107v647h-216q-100 0 -108 -108v-539z" />
<glyph unicode="r" d="M162 0v1078h161l54 -162q0 151 162 162h54q202 0 283 -162q32 -67 40 -161v-216h-215v269q0 100 -108 108h-108q-100 0 -108 -108v-808h-215z" />
<glyph unicode="s" d="M162 755q5 94 40 161q81 162 283 162h377v-162h-377q-108 -8 -108 -108v-53q8 -108 108 -108h108q202 0 283 -162q32 -67 40 -162q-8 -94 -40 -161q-81 -162 -283 -162h-377v162h377q108 8 108 107v54q-8 108 -108 108h-108q-202 0 -283 162q-32 67 -40 162z" />
<glyph unicode="t" d="M162 916v162h161v215h216v-215h377v-162h-377v-647q8 -107 106 -107h2h269v-162h-269q-94 8 -162 40q-162 81 -162 283v593h-161z" />
<glyph unicode="u" d="M162 323v755h215v-809q0 -100 108 -107h108q100 0 108 107v809h215v-1078h-161l-54 162q0 -151 -162 -162h-54q-202 0 -283 162q-32 67 -40 161z" />
<glyph unicode="v" d="M162 916v162h215v-162l162 -754l162 754v162h215v-162l-269 -916h-216z" />
<glyph unicode="w" d="M108 243v835h172v-862q0 -75 86 -81q86 5 87 81v862h172v-862q0 -75 86 -81q86 5 87 81v862h172v-835q0 -226 -259 -243q-159 0 -172 162q-13 -162 -173 -162q-259 16 -258 243z" />
<glyph unicode="x" d="M162 0v162l202 377l-202 377v162h215v-162l162 -323l162 323v162h215v-162l-202 -377l202 -377v-162h-215v162l-162 323l-162 -323v-162h-215z" />
<glyph unicode="y" d="M162 -269h161q100 0 108 107v162l-269 916v162h215v-162l162 -700l162 700v162h215v-162l-269 -916v-108q0 -202 -162 -283q-67 -32 -162 -40h-161v162z" />
<glyph unicode="z" d="M162 0v162l485 754h-485v162h700v-162l-485 -754h485v-162h-700z" />
<glyph unicode="{" d="M216 485v108h53q100 0 108 108v269q0 202 162 283q67 32 162 40h107v-161h-107q-100 0 -108 -108v-216q0 -164 -132 -269q132 -105 132 -270v-215q8 -108 108 -108h107v-162h-107q-94 5 -162 41q-162 81 -162 283v269q-8 108 -108 108h-53z" />
<glyph unicode="|" d="M485 -216v1509h162v-1509h-162z" />
<glyph unicode="}" d="M216 -54h107q100 0 108 108v215q0 164 132 270q-132 105 -132 269v216q-8 108 -108 108h-107v161h107q94 -8 162 -40q162 -81 162 -283v-269q8 -108 108 -108h53v-108h-53q-100 0 -108 -108v-269q0 -202 -162 -283q-67 -35 -162 -41h-107v162z" />
<glyph unicode="~" d="M191 431v78q0 67 43 119q51 65 143 65q75 0 229 -92q116 -70 149 -70q30 0 29 32l6 78l150 -2v-76q0 -70 -43 -121q-51 -65 -142 -65q-75 0 -230 92q-116 70 -148 70q-30 0 -29 -32l-6 -76h-151z" />
<glyph unicode="&#xa0;" />
<glyph unicode="&#xa1;" d="M431 0l54 647h108l54 -647v-216h-216v216zM431 862v216h216v-216h-216z" />
<glyph unicode="&#xa2;" d="M162 431v431q0 202 161 283q67 32 162 41h11v107h86v-107h11q202 0 283 -162q32 -67 40 -162v-54h-215v108q0 100 -108 108h-108q-100 0 -108 -108v-539q0 -100 108 -108h108q100 0 108 108v108h215v-54q0 -202 -161 -283q-67 -35 -162 -40h-11v-108h-86v108h-11 q-202 0 -283 161q-32 67 -40 162z" />
<glyph unicode="&#xa3;" d="M54 593v83h108v294q0 202 161 283q67 32 162 40h108q202 0 283 -161q32 -67 40 -162v-54h-215v108q0 100 -108 108h-108q-100 0 -108 -108v-348h270v-83h-270v-431h539v-162h-754v593h-108z" />
<glyph unicode="&#xa4;" d="M54 485v84h108v156h-108v83h108v162q0 202 161 283q67 32 162 40h108q202 0 283 -161q32 -67 40 -162v-54h-215v108q0 100 -108 108h-108q-100 0 -108 -108v-216h216v-83h-216v-156h216v-84h-216v-216q0 -100 108 -107h108q100 0 108 107v108h215v-54q0 -202 -161 -283 q-67 -35 -162 -40h-108q-202 0 -283 162q-32 67 -40 161v162h-108z" />
<glyph unicode="&#xa5;" d="M162 1132v161h215v-161l162 -539l162 539v161h215v-161l-229 -593h175v-84h-207l-8 -24v-132h215v-83h-215v-216h-216v216h-215v83h215v132l-8 24h-207v84h175z" />
<glyph unicode="&#xa6;" d="M485 -216v701h162v-701h-162zM485 593v700h162v-700h-162z" />
<glyph unicode="&#xa7;" d="M162 108v54h215v-108q8 -108 108 -108h108q108 8 108 108v108q0 100 -108 107h-162q-110 0 -189.5 79.5t-79.5 190.5q0 119 89 199q-89 105 -89 232q8 94 40 162q81 162 283 161h108q94 -5 162 -40q162 -81 161 -283v-54h-215v108q-8 108 -108 108h-108 q-108 -8 -108 -108v-108q0 -100 108 -108h162q110 0 189.5 -79.5t79.5 -189.5q0 -119 -89 -199q89 -105 89 -232q-8 -94 -40 -162q-81 -162 -283 -162h-108q-94 5 -162 41q-162 81 -161 283zM377 539q8 -108 108 -108h108q100 0 108 108q-8 108 -108 108h-108 q-100 0 -108 -108z" />
<glyph unicode="&#xa8;" d="M243 1240v215h215v-215h-215zM620 1240v215h215v-215h-215z" />
<glyph unicode="&#xa9;" d="M54 808q0 202 141.5 343.5t343.5 141.5t343.5 -141t141.5 -344q0 -202 -141.5 -343.5t-343.5 -141.5t-343.5 141.5t-141.5 343.5zM162 808q0 -156 110.5 -266.5t266.5 -110.5t266.5 110.5t110.5 266.5t-110.5 267t-266.5 111t-266.5 -110.5t-110.5 -267.5zM350 755v107 q0 151 162 162h54q151 0 162 -162h-108v27q0 51 -54 54h-54q-51 0 -54 -54v-161q0 -51 54 -54h54q51 0 54 54v27h108q0 -151 -162 -162h-54q-151 0 -162 162z" />
<glyph unicode="&#xaa;" d="M269 539v83h539v-83h-539zM350 916q11 162 162 162h108v81q-3 54 -54 54h-189v80h189q151 0 162 -161v-377h-81l-27 80q-5 -81 -81 -80h-27q-151 0 -162 161zM458 889q0 -51 54 -54h54q51 0 54 54v108h-108q-51 0 -54 -54v-54z" />
<glyph unicode="&#xab;" d="M162 539l269 377h162l-270 -377l270 -377h-162zM485 539l270 377h161l-269 -377l269 -377h-161z" />
<glyph unicode="&#xac;" d="M162 458v162h754v-351h-161v189h-593z" />
<glyph unicode="&#xad;" d="M162 458v162h754v-162h-754z" />
<glyph unicode="&#xae;" d="M54 808q0 202 141.5 343.5t343.5 141.5t343.5 -141t141.5 -344q0 -202 -141.5 -343.5t-343.5 -141.5t-343.5 141.5t-141.5 343.5zM162 808q0 -156 110.5 -266.5t266.5 -110.5t266.5 110.5t110.5 266.5t-110.5 267t-266.5 111t-266.5 -110.5t-110.5 -267.5zM350 593v431 h229q62 0 105.5 -43t43.5 -105q0 -54 -35 -94.5t-87 -51.5l122 -137h-124l-100 135h-46v-135h-108zM458 808h108q51 0 54 54v27q0 51 -54 54h-108v-135z" />
<glyph unicode="&#xaf;" d="M54 1132v161h970v-161h-970z" />
<glyph unicode="&#xb0;" d="M350 1078v54q0 151 162 161h54q151 0 162 -161v-54q0 -151 -162 -162h-54q-151 0 -162 162zM458 1051q0 -51 54 -54h54q51 0 54 54v108q0 51 -54 54h-54q-51 0 -54 -54v-108z" />
<glyph unicode="&#xb1;" d="M162 0v162h754v-162h-754zM189 539v162h269v269h162v-269h269v-162h-269v-270h-162v270h-269z" />
<glyph unicode="&#xb2;" d="M350 755v134q11 162 162 162h54q54 3 54 54v54q-3 54 -54 54h-54q-54 -3 -54 -54v-54h-108v27q11 162 162 161h54q162 -11 162 -161q-11 -162 -162 -162h-54q-54 -3 -54 -54v-81h270v-80h-378z" />
<glyph unicode="&#xb3;" d="M350 916v27h108v-54q3 -54 54 -54h54q54 3 54 54v54q-3 54 -54 54h-81v81h81q54 3 54 54v27q-3 54 -54 54h-54q-54 -3 -54 -54v-54h-108v27q11 162 162 161h54q151 0 162 -134v-27q-1 -87 -87 -95q86 -38 87 -121q-11 -162 -162 -161h-54q-162 11 -162 161z" />
<glyph unicode="&#xb4;" d="M458 1186l108 323h162l-108 -323h-162z" />
<glyph unicode="&#xb5;" d="M162 -431v1509h215v-809q0 -100 108 -107h108q100 0 108 107v809h215v-1078h-161l-54 162q0 -151 -162 -162h-54q-46 0 -108 19v-450h-215z" />
<glyph unicode="&#xb6;" d="M162 808v162q5 94 40 162q81 162 283 161h162v-1509h-162v701q-94 8 -162 40q-162 81 -161 283zM755 -216v1509h161v-1509h-161z" />
<glyph unicode="&#xb7;" d="M431 431v216h216v-216h-216z" />
<glyph unicode="&#xb8;" d="M350 -162h108v162h162v-108q-16 -216 -216 -215h-54v161z" />
<glyph unicode="&#xb9;" d="M377 755v80h108v351h-108v81l216 26v-458h108v-80h-324z" />
<glyph unicode="&#xba;" d="M269 539v83h539v-83h-539zM350 916v216q0 151 162 161h54q151 0 162 -161v-216q0 -151 -162 -161h-54q-151 0 -162 161zM458 889q0 -51 54 -54h54q51 0 54 54v270q0 51 -54 54h-54q-51 0 -54 -54v-270z" />
<glyph unicode="&#xbb;" d="M162 162l269 377l-269 377h161l270 -377l-270 -377h-161zM485 162l270 377l-270 377h162l269 -377l-269 -377h-162z" />
<glyph unicode="&#xbc;" d="M127 296l762 763l62 -62l-762 -763zM162 755v80h107v351h-107v81l215 26v-458h108v-80h-323zM512 108v81l243 350h107v-350h54v-81h-54v-108h-107v108h-243zM593 189h162v242z" />
<glyph unicode="&#xbd;" d="M127 296l762 763l62 -62l-762 -763zM162 755v80h107v351h-107v81l215 26v-458h108v-80h-323zM539 0v135q11 162 162 161h54q54 3 53 54v54q-3 54 -53 54h-54q-54 -3 -54 -54v-54h-108v27q11 162 162 162h54q162 -11 161 -162q-11 -162 -161 -161h-54q-54 -3 -54 -54v-81 h269v-81h-377z" />
<glyph unicode="&#xbe;" d="M127 296l762 763l62 -62l-762 -763zM162 916v27h107v-54q3 -54 54 -54h54q54 3 54 54v54q-3 54 -54 54h-81v81h81q54 3 54 54v27q-3 54 -54 54h-54q-54 -3 -54 -54v-54h-107v27q11 162 161 161h54q151 0 162 -134v-27q0 -87 -86 -95q86 -38 86 -121q-11 -162 -162 -161 h-54q-162 11 -161 161zM512 108v81l243 350h107v-350h54v-81h-54v-108h-107v108h-243zM593 189h162v242z" />
<glyph unicode="&#xbf;" d="M162 108v108q0 269 269 318v113h216v-270h-162q-108 -8 -108 -108v-215q8 -108 108 -108h108q108 8 108 108v108h215v-54q-8 -94 -40 -162q-81 -162 -283 -162h-108q-94 8 -162 41q-162 81 -161 283zM431 862v216h216v-216h-216z" />
<glyph unicode="&#xc0;" d="M162 0v162l269 1131h216l269 -1131v-162h-215v162l-46 269h-232l-46 -269v-162h-215zM350 1725h162l108 -324h-162zM450 593h178l-89 539z" />
<glyph unicode="&#xc1;" d="M162 0v162l269 1131h216l269 -1131v-162h-215v162l-46 269h-232l-46 -269v-162h-215zM450 593h178l-89 539zM458 1401l108 324h162l-108 -324h-162z" />
<glyph unicode="&#xc2;" d="M162 0v162l269 1131h216l269 -1131v-162h-215v162l-46 269h-232l-46 -269v-162h-215zM269 1401l216 324h108l215 -324h-161l-108 189l-108 -189h-162zM450 593h178l-89 539z" />
<glyph unicode="&#xc3;" d="M162 0v162l269 1131h216l269 -1131v-162h-215v162l-46 269h-232l-46 -269v-162h-215zM234 1455v62q0 62 38 111q49 59 132 59q75 0 160 -81t110 -81q46 0 45 46l3 62h121v-62q0 -62 -37 -110q-49 -59 -132 -60q-75 0 -160.5 81t-109.5 81q-46 0 -46 -46l-2 -62h-122z M450 593h178l-89 539z" />
<glyph unicode="&#xc4;" d="M162 0v162l269 1131h216l269 -1131v-162h-215v162l-46 269h-232l-46 -269v-162h-215zM243 1455v216h215v-216h-215zM450 593h178l-89 539zM620 1455v216h215v-216h-215z" />
<glyph unicode="&#xc5;" d="M162 0v162l269 1131h216l269 -1131v-162h-215v162l-46 269h-232l-46 -269v-162h-215zM377 1563q0 67 47.5 114.5t114.5 47.5t114.5 -47.5t47.5 -114.5t-47.5 -114.5t-114.5 -47.5t-114.5 47.5t-47.5 114.5zM450 593h178l-89 539zM458 1563q0 -32 24.5 -56.5t56.5 -24.5 t56.5 24.5t24.5 56.5t-24.5 56.5t-56.5 24.5t-56.5 -24.5t-24.5 -56.5z" />
<glyph unicode="&#xc6;" horiz-adv-x="2155" d="M162 0v162l269 1131h216l269 -1131v-162h-215v162l-46 269h-232l-46 -269v-162h-215zM450 593h178l-89 539zM1293 0v1293h647v-161h-431v-377h377v-162h-377v-431h431v-162h-647z" />
<glyph unicode="&#xc7;" d="M162 323v647q0 202 161 283q67 32 162 40h108q202 0 283 -161q32 -68 40 -162v-54h-215v108q0 100 -108 108h-108q-100 0 -108 -108v-755q0 -100 108 -107h108q100 0 108 107v108h215v-54q0 -202 -161 -283q-67 -35 -162 -40h-108q-202 0 -283 162q-32 67 -40 161z M350 -162h108v162h162v-108q-16 -216 -216 -215h-54v161z" />
<glyph unicode="&#xc8;" d="M216 0v1293h646v-161h-431v-377h377v-162h-377v-431h431v-162h-646zM350 1725h162l108 -324h-162z" />
<glyph unicode="&#xc9;" d="M216 0v1293h646v-161h-431v-377h377v-162h-377v-431h431v-162h-646zM458 1401l108 324h162l-108 -324h-162z" />
<glyph unicode="&#xca;" d="M216 0v1293h646v-161h-431v-377h377v-162h-377v-431h431v-162h-646zM269 1401l216 324h108l215 -324h-161l-108 189l-108 -189h-162z" />
<glyph unicode="&#xcb;" d="M216 0v1293h646v-161h-431v-377h377v-162h-377v-431h431v-162h-646zM243 1455v216h215v-216h-215zM620 1455v216h215v-216h-215z" />
<glyph unicode="&#xcc;" d="M216 0v162h215v970h-215v161h646v-161h-215v-970h215v-162h-646zM350 1725h162l108 -324h-162z" />
<glyph unicode="&#xcd;" d="M216 0v162h215v970h-215v161h646v-161h-215v-970h215v-162h-646zM458 1401l108 324h162l-108 -324h-162z" />
<glyph unicode="&#xce;" d="M216 0v162h215v970h-215v161h646v-161h-215v-970h215v-162h-646zM269 1401l216 324h108l215 -324h-161l-108 189l-108 -189h-162z" />
<glyph unicode="&#xcf;" d="M216 0v162h215v970h-215v161h646v-161h-215v-970h215v-162h-646zM243 1455v216h215v-216h-215zM620 1455v216h215v-216h-215z" />
<glyph unicode="&#xd0;" d="M46 534l116 21v738h431q202 0 283 -161q32 -67 40 -162v-647q0 -202 -161 -283q-67 -32 -162 -40h-431v469l-103 -19zM377 162h216q100 -1 108 107v755q0 100 -108 108h-216v-539l200 35l13 -84l-213 -37v-345z" />
<glyph unicode="&#xd1;" d="M162 0v1293h215v-161l324 -647v808h215v-1293h-215v162l-324 646v-808h-215zM234 1455v62q0 62 38 111q49 59 132 59q75 0 160 -81t110 -81q46 0 45 46l3 62h121v-62q0 -62 -37 -110q-49 -59 -132 -60q-75 0 -160.5 81t-109.5 81q-46 0 -46 -46l-2 -62h-122z" />
<glyph unicode="&#xd2;" d="M162 323v647q0 202 161 283q67 32 162 40h108q202 0 283 -161q32 -67 40 -162v-647q0 -202 -161 -283q-67 -32 -162 -40h-108q-202 0 -283 162q-32 67 -40 161zM350 1725h162l108 -324h-162zM377 269q0 -100 108 -107h108q100 -1 108 107v755q0 100 -108 108h-108 q-100 0 -108 -108v-755z" />
<glyph unicode="&#xd3;" d="M162 323v647q0 202 161 283q67 32 162 40h108q202 0 283 -161q32 -67 40 -162v-647q0 -202 -161 -283q-67 -32 -162 -40h-108q-202 0 -283 162q-32 67 -40 161zM377 269q0 -100 108 -107h108q100 -1 108 107v755q0 100 -108 108h-108q-100 0 -108 -108v-755zM458 1401 l108 324h162l-108 -324h-162z" />
<glyph unicode="&#xd4;" d="M162 323v647q0 202 161 283q67 32 162 40h108q202 0 283 -161q32 -67 40 -162v-647q0 -202 -161 -283q-67 -32 -162 -40h-108q-202 0 -283 162q-32 67 -40 161zM269 1401l216 324h108l215 -324h-161l-108 189l-108 -189h-162zM377 269q0 -100 108 -107h108 q100 -1 108 107v755q0 100 -108 108h-108q-100 0 -108 -108v-755z" />
<glyph unicode="&#xd5;" d="M162 323v647q0 202 161 283q67 32 162 40h108q202 0 283 -161q32 -67 40 -162v-647q0 -202 -161 -283q-67 -32 -162 -40h-108q-202 0 -283 162q-32 67 -40 161zM234 1455v62q0 62 38 111q49 59 132 59q75 0 160 -81t110 -81q46 0 45 46l3 62h121v-62q0 -62 -37 -110 q-49 -59 -132 -60q-75 0 -160.5 81t-109.5 81q-46 0 -46 -46l-2 -62h-122zM377 269q0 -100 108 -107h108q100 -1 108 107v755q0 100 -108 108h-108q-100 0 -108 -108v-755z" />
<glyph unicode="&#xd6;" d="M162 323v647q0 202 161 283q67 32 162 40h108q202 0 283 -161q32 -67 40 -162v-647q0 -202 -161 -283q-67 -32 -162 -40h-108q-202 0 -283 162q-32 67 -40 161zM243 1455v216h215v-216h-215zM377 269q0 -100 108 -107h108q100 -1 108 107v755q0 100 -108 108h-108 q-100 0 -108 -108v-755zM620 1455v216h215v-216h-215z" />
<glyph unicode="&#xd7;" d="M216 329l210 210l-210 210l113 113l210 -210l210 210l113 -113l-210 -210l210 -210l-113 -113l-210 210l-210 -210z" />
<glyph unicode="&#xd8;" d="M162 323v647q0 202 161 283q67 32 162 40h108q54 0 126 -24l38 100l81 -27l-43 -113q121 -86 121 -259v-647q0 -202 -161 -283q-67 -35 -162 -40h-108q-54 0 -127 24l-37 -102l-81 29l43 114q-121 86 -121 258zM377 326l286 784q-27 22 -70 22h-108q-100 0 -108 -108 v-698zM415 183q27 -22 70 -21h108q100 0 108 107v698z" />
<glyph unicode="&#xd9;" d="M162 323v970h215v-1024q0 -100 108 -107h108q100 0 108 107v1024h215v-970q0 -202 -161 -283q-67 -32 -162 -40h-108q-202 0 -283 162q-35 67 -40 161zM350 1725h162l108 -324h-162z" />
<glyph unicode="&#xda;" d="M162 323v970h215v-1024q0 -100 108 -107h108q100 0 108 107v1024h215v-970q0 -202 -161 -283q-67 -32 -162 -40h-108q-202 0 -283 162q-35 67 -40 161zM458 1401l108 324h162l-108 -324h-162z" />
<glyph unicode="&#xdb;" d="M162 323v970h215v-1024q0 -100 108 -107h108q100 0 108 107v1024h215v-970q0 -202 -161 -283q-67 -32 -162 -40h-108q-202 0 -283 162q-35 67 -40 161zM269 1401l216 324h108l215 -324h-161l-108 189l-108 -189h-162z" />
<glyph unicode="&#xdc;" d="M162 323v970h215v-1024q0 -100 108 -107h108q100 0 108 107v1024h215v-970q0 -202 -161 -283q-67 -32 -162 -40h-108q-202 0 -283 162q-35 67 -40 161zM243 1455v216h215v-216h-215zM620 1455v216h215v-216h-215z" />
<glyph unicode="&#xdd;" d="M162 1132v161h215v-161l162 -539l162 539v161h215v-161l-269 -701v-431h-216v431zM458 1401l108 324h162l-108 -324h-162z" />
<glyph unicode="&#xde;" d="M162 0v1293h215v-215h216q202 0 283 -162q32 -67 40 -161v-216q0 -202 -161 -283q-67 -35 -162 -40h-216v-216h-215zM377 377h216q100 0 108 108v323q0 100 -108 108h-216v-539z" />
<glyph unicode="&#xdf;" d="M162 0v1186q0 202 161 283q67 32 162 40h108q202 0 283 -162q32 -67 40 -161v-162q0 -137 -99 -243q100 -86 99 -242v-216q0 -202 -161 -283q-67 -32 -162 -40h-108v162h108q100 0 108 107v324q-8 108 -108 108h-108v161h108q100 0 108 108v270q-8 108 -108 107h-108 q-100 0 -108 -107v-1240h-215z" />
<glyph unicode="&#xe0;" d="M162 323q5 94 40 162q81 162 283 162h216v161q-8 108 -108 108h-377v162h377q202 0 283 -162q32 -67 40 -161v-755h-161l-54 162q-11 -162 -162 -162h-54q-202 0 -283 162q-35 67 -40 161zM350 1509h162l108 -323h-162zM377 269q0 -100 108 -107h108q100 0 108 107v216 h-216q-100 0 -108 -108v-108z" />
<glyph unicode="&#xe1;" d="M162 323q5 94 40 162q81 162 283 162h216v161q-8 108 -108 108h-377v162h377q202 0 283 -162q32 -67 40 -161v-755h-161l-54 162q-11 -162 -162 -162h-54q-202 0 -283 162q-35 67 -40 161zM377 269q0 -100 108 -107h108q100 0 108 107v216h-216q-100 0 -108 -108v-108z M458 1186l108 323h162l-108 -323h-162z" />
<glyph unicode="&#xe2;" d="M162 323q5 94 40 162q81 162 283 162h216v161q-8 108 -108 108h-377v162h377q202 0 283 -162q32 -67 40 -161v-755h-161l-54 162q-11 -162 -162 -162h-54q-202 0 -283 162q-35 67 -40 161zM269 1186l216 323h108l215 -323h-161l-108 188l-108 -188h-162zM377 269 q0 -100 108 -107h108q100 0 108 107v216h-216q-100 0 -108 -108v-108z" />
<glyph unicode="&#xe3;" d="M162 323q5 94 40 162q81 162 283 162h216v161q-8 108 -108 108h-377v162h377q202 0 283 -162q32 -67 40 -161v-755h-161l-54 162q-11 -162 -162 -162h-54q-202 0 -283 162q-35 67 -40 161zM234 1240v62q0 62 38 110q49 59 132 59q75 0 160 -80.5t110 -80.5q46 0 45 45 l3 62h121v-62q0 -62 -37 -110q-49 -59 -132 -59q-75 0 -160.5 80.5t-109.5 80.5q-46 0 -46 -45l-2 -62h-122zM377 269q0 -100 108 -107h108q100 0 108 107v216h-216q-100 0 -108 -108v-108z" />
<glyph unicode="&#xe4;" d="M162 323q5 94 40 162q81 162 283 162h216v161q-8 108 -108 108h-377v162h377q202 0 283 -162q32 -67 40 -161v-755h-161l-54 162q-11 -162 -162 -162h-54q-202 0 -283 162q-35 67 -40 161zM243 1240v215h215v-215h-215zM377 269q0 -100 108 -107h108q100 0 108 107v216 h-216q-100 0 -108 -108v-108zM620 1240v215h215v-215h-215z" />
<glyph unicode="&#xe5;" d="M162 323q5 94 40 162q81 162 283 162h216v161q-8 108 -108 108h-377v162h377q202 0 283 -162q32 -67 40 -161v-755h-161l-54 162q-11 -162 -162 -162h-54q-202 0 -283 162q-35 67 -40 161zM377 269q0 -100 108 -107h108q100 0 108 107v216h-216q-100 0 -108 -108v-108z M377 1347q0 67 47.5 114.5t114.5 47.5t114.5 -47t47.5 -115q0 -67 -47.5 -114t-114.5 -47t-114.5 47t-47.5 114zM458 1347q0 -32 24.5 -56t56.5 -24t56.5 24t24.5 56t-24.5 56.5t-56.5 24.5t-56.5 -24t-24.5 -57z" />
<glyph unicode="&#xe6;" horiz-adv-x="2155" d="M162 323q8 94 40 162q81 162 283 162h216v161q-8 108 -108 108h-377v162h377q202 0 283 -162q32 -67 40 -161v-755h-161l-54 162q-11 -162 -162 -162h-54q-202 0 -283 162q-32 67 -40 161zM377 269q0 -100 108 -107h108q100 0 108 107v216h-216q-100 0 -108 -108v-108z M1240 323v432q0 202 161 282q67 32 162 41h108q202 0 283 -162q32 -67 40 -161v-270h-539v-216q0 -100 108 -107h108q100 0 108 107v54h215q0 -202 -162 -283q-67 -35 -161 -40h-108q-202 0 -283 162q-35 67 -40 161zM1455 647h324v161q-8 108 -108 108h-108 q-100 0 -108 -108v-161z" />
<glyph unicode="&#xe7;" d="M162 323v432q0 202 161 282q67 32 162 41h108q202 0 283 -162q32 -67 40 -161v-54h-215v107q0 100 -108 108h-108q-100 0 -108 -108v-539q0 -100 108 -107h108q100 0 108 107v108h215v-54q0 -202 -161 -283q-67 -35 -162 -40h-108q-202 0 -283 162q-35 67 -40 161z M350 -162h108v162h162v-108q-16 -216 -216 -215h-54v161z" />
<glyph unicode="&#xe8;" d="M162 323v432q0 202 161 282q67 32 162 41h108q202 0 283 -162q32 -67 40 -161v-270h-539v-216q0 -100 108 -107h108q100 0 108 107v54h215q0 -202 -161 -283q-67 -35 -162 -40h-108q-202 0 -283 162q-35 67 -40 161zM350 1509h162l108 -323h-162zM377 647h324v161 q-8 108 -108 108h-108q-100 0 -108 -108v-161z" />
<glyph unicode="&#xe9;" d="M162 323v432q0 202 161 282q67 32 162 41h108q202 0 283 -162q32 -67 40 -161v-270h-539v-216q0 -100 108 -107h108q100 0 108 107v54h215q0 -202 -161 -283q-67 -35 -162 -40h-108q-202 0 -283 162q-35 67 -40 161zM377 647h324v161q-8 108 -108 108h-108 q-100 0 -108 -108v-161zM458 1186l108 323h162l-108 -323h-162z" />
<glyph unicode="&#xea;" d="M162 323v432q0 202 161 282q67 32 162 41h108q202 0 283 -162q32 -67 40 -161v-270h-539v-216q0 -100 108 -107h108q100 0 108 107v54h215q0 -202 -161 -283q-67 -35 -162 -40h-108q-202 0 -283 162q-35 67 -40 161zM269 1186l216 323h108l215 -323h-161l-108 188 l-108 -188h-162zM377 647h324v161q-8 108 -108 108h-108q-100 0 -108 -108v-161z" />
<glyph unicode="&#xeb;" d="M162 323v432q0 202 161 282q67 32 162 41h108q202 0 283 -162q32 -67 40 -161v-270h-539v-216q0 -100 108 -107h108q100 0 108 107v54h215q0 -202 -161 -283q-67 -35 -162 -40h-108q-202 0 -283 162q-35 67 -40 161zM243 1240v215h215v-215h-215zM377 647h324v161 q-8 108 -108 108h-108q-100 0 -108 -108v-161zM620 1240v215h215v-215h-215z" />
<glyph unicode="&#xec;" d="M162 0v162h269v754h-215v162h431v-916h269v-162h-754zM350 1509h162l108 -323h-162z" />
<glyph unicode="&#xed;" d="M162 0v162h269v754h-215v162h431v-916h269v-162h-754zM458 1186l108 323h162l-108 -323h-162z" />
<glyph unicode="&#xee;" d="M162 0v162h269v754h-215v162h431v-916h269v-162h-754zM269 1186l216 323h108l215 -323h-161l-108 188l-108 -188h-162z" />
<glyph unicode="&#xef;" d="M162 0v162h269v754h-215v162h431v-916h269v-162h-754zM243 1240v215h215v-215h-215zM620 1240v215h215v-215h-215z" />
<glyph unicode="&#xf0;" d="M162 323v324q0 202 161 283q67 32 162 40h216v162q0 146 -132 202l-116 -248l-78 35l105 226h-211v162h216q24 0 67 -8l52 108l75 -35l-43 -92q280 -94 280 -404v-755q0 -202 -161 -283q-67 -32 -162 -40h-108q-202 0 -283 162q-32 67 -40 161zM377 269q8 -108 108 -107 h108q100 -1 108 107v539h-216q-100 0 -108 -107v-432z" />
<glyph unicode="&#xf1;" d="M162 0v1078h161l54 -162q0 151 162 162h54q202 0 283 -162q32 -67 40 -161v-755h-215v808q0 100 -108 108h-108q-100 0 -108 -108v-808h-215zM234 1240v62q0 62 38 110q49 59 132 59q75 0 160 -80.5t110 -80.5q46 0 45 45l3 62h121v-62q0 -62 -37 -110q-49 -59 -132 -59 q-75 0 -160.5 80.5t-109.5 80.5q-46 0 -46 -45l-2 -62h-122z" />
<glyph unicode="&#xf2;" d="M162 323v432q0 202 161 282q67 35 162 41h108q202 0 283 -162q32 -67 40 -161v-432q0 -202 -161 -283q-67 -32 -162 -40h-108q-202 0 -283 162q-35 67 -40 161zM350 1509h162l108 -323h-162zM377 269q0 -100 108 -107h108q100 -1 108 107v539q0 100 -108 108h-108 q-100 0 -108 -108v-539z" />
<glyph unicode="&#xf3;" d="M162 323v432q0 202 161 282q67 35 162 41h108q202 0 283 -162q32 -67 40 -161v-432q0 -202 -161 -283q-67 -32 -162 -40h-108q-202 0 -283 162q-35 67 -40 161zM377 269q0 -100 108 -107h108q100 -1 108 107v539q0 100 -108 108h-108q-100 0 -108 -108v-539zM458 1186 l108 323h162l-108 -323h-162z" />
<glyph unicode="&#xf4;" d="M162 323v432q0 202 161 282q67 35 162 41h108q202 0 283 -162q32 -67 40 -161v-432q0 -202 -161 -283q-67 -32 -162 -40h-108q-202 0 -283 162q-35 67 -40 161zM269 1186l216 323h108l215 -323h-161l-108 188l-108 -188h-162zM377 269q0 -100 108 -107h108 q100 -1 108 107v539q0 100 -108 108h-108q-100 0 -108 -108v-539z" />
<glyph unicode="&#xf5;" d="M162 323v432q0 202 161 282q67 35 162 41h108q202 0 283 -162q32 -67 40 -161v-432q0 -202 -161 -283q-67 -32 -162 -40h-108q-202 0 -283 162q-35 67 -40 161zM234 1240v62q0 62 38 110q49 59 132 59q75 0 160 -80.5t110 -80.5q46 0 45 45l3 62h121v-62q0 -62 -37 -110 q-49 -59 -132 -59q-75 0 -160.5 80.5t-109.5 80.5q-46 0 -46 -45l-2 -62h-122zM377 269q0 -100 108 -107h108q100 -1 108 107v539q0 100 -108 108h-108q-100 0 -108 -108v-539z" />
<glyph unicode="&#xf6;" d="M162 323v432q0 202 161 282q67 35 162 41h108q202 0 283 -162q32 -67 40 -161v-432q0 -202 -161 -283q-67 -32 -162 -40h-108q-202 0 -283 162q-35 67 -40 161zM243 1240v215h215v-215h-215zM377 269q0 -100 108 -107h108q100 -1 108 107v539q0 100 -108 108h-108 q-100 0 -108 -108v-539zM620 1240v215h215v-215h-215z" />
<glyph unicode="&#xf7;" d="M162 458v162h754v-162h-754zM458 162v161h162v-161h-162zM458 755v161h162v-161h-162z" />
<glyph unicode="&#xf8;" d="M162 323v432q0 202 161 282q67 35 162 41h108q59 0 137 -30l43 95l79 -35l-49 -100q113 -86 113 -253v-432q0 -202 -161 -283q-67 -32 -162 -40h-108q-59 0 -137 30l-43 -95l-79 35l49 100q-113 86 -113 253zM377 294l283 603q-27 19 -67 19h-108q-100 0 -108 -108v-514z M418 181q27 -19 67 -19h108q100 0 108 107v515z" />
<glyph unicode="&#xf9;" d="M162 323v755h215v-809q0 -100 108 -107h108q100 0 108 107v809h215v-1078h-161l-54 162q0 -151 -162 -162h-54q-202 0 -283 162q-35 67 -40 161zM350 1509h162l108 -323h-162z" />
<glyph unicode="&#xfa;" d="M162 323v755h215v-809q0 -100 108 -107h108q100 0 108 107v809h215v-1078h-161l-54 162q0 -151 -162 -162h-54q-202 0 -283 162q-35 67 -40 161zM458 1186l108 323h162l-108 -323h-162z" />
<glyph unicode="&#xfb;" d="M162 323v755h215v-809q0 -100 108 -107h108q100 0 108 107v809h215v-1078h-161l-54 162q0 -151 -162 -162h-54q-202 0 -283 162q-35 67 -40 161zM269 1186l216 323h108l215 -323h-161l-108 188l-108 -188h-162z" />
<glyph unicode="&#xfc;" d="M162 323v755h215v-809q0 -100 108 -107h108q100 0 108 107v809h215v-1078h-161l-54 162q0 -151 -162 -162h-54q-202 0 -283 162q-35 67 -40 161zM243 1240v215h215v-215h-215zM620 1240v215h215v-215h-215z" />
<glyph unicode="&#xfd;" d="M162 -269h161q100 0 108 107v162l-269 916v162h215v-162l162 -700l162 700v162h215v-162l-269 -916v-108q0 -202 -162 -283q-67 -32 -162 -40h-161v162zM458 1186l108 323h162l-108 -323h-162z" />
<glyph unicode="&#xfe;" d="M162 -431v1940h215v-593q0 151 162 162h54q202 0 283 -162q32 -67 40 -161v-432q-8 -94 -40 -161q-81 -162 -283 -162h-216v-431h-215zM377 162h216q100 -1 108 107v539q0 100 -108 108h-108q-100 0 -108 -108v-646z" />
<glyph unicode="&#xff;" d="M162 -269h161q100 0 108 107v162l-269 916v162h215v-162l162 -700l162 700v162h215v-162l-269 -916v-108q0 -202 -162 -283q-67 -32 -162 -40h-161v162zM243 1240v215h215v-215h-215zM620 1240v215h215v-215h-215z" />
<glyph unicode="&#x152;" horiz-adv-x="2155" d="M162 323v647q0 202 161 283q67 32 162 40h108q202 0 283 -161q35 -67 40 -162v-647q0 -202 -161 -283q-67 -32 -162 -40h-108q-202 0 -283 162q-32 67 -40 161zM377 269q0 -100 108 -107h108q100 -1 108 107v755q0 100 -108 108h-108q-100 0 -108 -108v-755zM1293 0v1293 h647v-161h-431v-377h377v-162h-377v-431h431v-162h-647z" />
<glyph unicode="&#x153;" horiz-adv-x="2155" d="M162 323v432q0 202 161 282q67 35 162 41h108q202 0 283 -162q32 -67 40 -161v-432q0 -202 -161 -283q-67 -32 -162 -40h-108q-202 0 -283 162q-32 67 -40 161zM377 269q0 -100 108 -107h108q100 -1 108 107v539q0 100 -108 108h-108q-100 0 -108 -108v-539zM1240 323 v432q0 202 161 282q67 32 162 41h108q202 0 283 -162q32 -67 40 -161v-270h-539v-216q0 -100 108 -107h108q100 0 108 107v54h215q0 -202 -162 -283q-67 -35 -161 -40h-108q-202 0 -283 162q-35 67 -40 161zM1455 647h324v161q-8 108 -108 108h-108q-100 0 -108 -108v-161z " />
<glyph unicode="&#x178;" d="M162 1132v161h215v-161l162 -539l162 539v161h215v-161l-269 -701v-431h-216v431zM243 1455v216h215v-216h-215zM620 1455v216h215v-216h-215z" />
<glyph unicode="&#x2c6;" d="M269 1186l216 323h108l215 -323h-161l-108 188l-108 -188h-162z" />
<glyph unicode="&#x2dc;" d="M234 1240v62q0 62 38 110q49 59 132 59q75 0 160 -80.5t110 -80.5q46 0 45 45l3 62h121v-62q0 -62 -37 -110q-49 -59 -132 -59q-75 0 -160.5 80.5t-109.5 80.5q-46 0 -46 -45l-2 -62h-122z" />
<glyph unicode="&#x2000;" horiz-adv-x="862" />
<glyph unicode="&#x2001;" horiz-adv-x="1725" />
<glyph unicode="&#x2002;" horiz-adv-x="862" />
<glyph unicode="&#x2003;" horiz-adv-x="1725" />
<glyph unicode="&#x2004;" horiz-adv-x="575" />
<glyph unicode="&#x2005;" horiz-adv-x="431" />
<glyph unicode="&#x2006;" horiz-adv-x="287" />
<glyph unicode="&#x2007;" horiz-adv-x="287" />
<glyph unicode="&#x2008;" horiz-adv-x="215" />
<glyph unicode="&#x2009;" horiz-adv-x="345" />
<glyph unicode="&#x200a;" horiz-adv-x="95" />
<glyph unicode="&#x2010;" d="M162 458v162h754v-162h-754z" />
<glyph unicode="&#x2011;" d="M162 458v162h754v-162h-754z" />
<glyph unicode="&#x2012;" d="M162 458v162h754v-162h-754z" />
<glyph unicode="&#x2013;" d="M216 458v162h646v-162h-646z" />
<glyph unicode="&#x2014;" d="M54 458v162h970v-162h-970z" />
<glyph unicode="&#x2018;" d="M431 860l162 431h54v-431h-216z" />
<glyph unicode="&#x2019;" d="M431 860v431h216l-162 -431h-54z" />
<glyph unicode="&#x201a;" d="M431 216h216l-162 -432h-54v432z" />
<glyph unicode="&#x201c;" d="M243 860l161 431h54v-431h-215zM620 860l161 431h54v-431h-215z" />
<glyph unicode="&#x201d;" d="M243 860v431h215l-162 -431h-53zM620 860v431h215l-161 -431h-54z" />
<glyph unicode="&#x201e;" d="M243 216h215l-162 -432h-53v432zM620 216h215l-161 -432h-54v432z" />
<glyph unicode="&#x2022;" d="M377 539q0 67 47.5 114.5t114.5 47.5t114.5 -47.5t47.5 -114.5t-47.5 -114.5t-114.5 -47.5t-114.5 47.5t-47.5 114.5z" />
<glyph unicode="&#x2026;" d="M108 0v216h215v-216h-215zM431 0v216h216v-216h-216zM755 0v216h215v-216h-215z" />
<glyph unicode="&#x202f;" horiz-adv-x="345" />
<glyph unicode="&#x2039;" d="M323 539l270 377h162l-270 -377l270 -377h-162z" />
<glyph unicode="&#x203a;" d="M323 162l270 377l-270 377h162l270 -377l-270 -377h-162z" />
<glyph unicode="&#x205f;" horiz-adv-x="431" />
<glyph unicode="&#x2122;" d="M108 1183v102h345v-102h-103v-485h-140v485h-102zM488 698v587h172l68 -274l70 274h172v-587h-137v450l-105 -415l-103 415v-450h-137z" />
<glyph unicode="&#x25fc;" d="M0 0v1078h1078v-1078h-1078z" />
</font>
</defs>
</svg>
