<svg version="1.1" id="Layer_1" xmlns="http://www.w3.org/2000/svg" xmlns:xlink="http://www.w3.org/1999/xlink" x="0px" y="0px" viewBox="0 0 512.001 512.001" style="enable-background:new 0 0 512.001 512.001;" xml:space="preserve">
<g>
	<g>
		<path d="M508.458,69.558c-2.248-1.938-5.231-2.799-8.165-2.36l-33.357,4.988v-28.7c0-3.357-1.651-6.499-4.416-8.401 c-2.766-1.904-6.29-2.325-9.425-1.125L280.745,99.859h-49.492L58.906,33.959c-3.136-1.2-6.66-0.778-9.425,1.125 c-2.765,1.903-4.416,5.045-4.416,8.401v28.698l-33.357-4.988c-2.938-0.439-5.917,0.424-8.165,2.36C1.293,71.494,0,74.316,0,77.284 v358.459c0,5.051,3.696,9.34,8.691,10.087l219.173,32.773c0.05,0.007,0.099,0.004,0.149,0.011 c0.446,0.059,0.898,0.101,1.359,0.101h53.257c0.462,0,0.914-0.042,1.36-0.101c0.05-0.006,0.099-0.003,0.149-0.011L503.31,445.83 c4.995-0.747,8.691-5.036,8.691-10.087V77.284C512,74.316,510.707,71.494,508.458,69.558z M65.463,58.305L136.8,85.581 l-71.337-10.91V58.305z M219.173,456.68L20.398,426.956V89.122l198.774,29.724V456.68z M272.43,458.318h-32.859V120.257h32.859 V458.318z M446.537,58.305v16.366L375.2,85.581L446.537,58.305z M491.602,426.956L292.827,456.68V118.844l198.774-29.722V426.956z "/>
	</g>
</g>
<g>
	<g>
		<path d="M462.371,151.825c-2.248-1.938-5.23-2.799-8.166-2.36l-126.997,18.991c-4.995,0.747-8.691,5.036-8.691,10.087v75.922 c0,2.968,1.292,5.789,3.542,7.727c1.863,1.606,4.23,2.472,6.657,2.472c0.501,0,1.006-0.037,1.508-0.112l126.997-18.99 c4.995-0.747,8.691-5.036,8.691-10.087v-75.923C465.913,156.584,464.62,153.763,462.371,151.825z M445.514,226.688 l-106.599,15.939V187.33l106.599-15.94V226.688z"/>
	</g>
</g>
<g>
	<g>
		<path d="M429.957,200.739c-0.825-5.573-6.009-9.422-11.584-8.595l-55.306,8.193c-5.572,0.826-9.419,6.012-8.594,11.583 c0.75,5.066,5.104,8.706,10.076,8.706c0.497,0,1-0.037,1.508-0.111l55.306-8.193C426.935,211.496,430.782,206.31,429.957,200.739z "/>
	</g>
</g>
<g>
	<g>
		<path d="M194.55,322.103c-5.632,0-10.199,4.566-10.199,10.199v94.223c0,5.633,4.567,10.199,10.199,10.199 s10.199-4.566,10.199-10.199v-94.223C204.749,326.669,200.182,322.103,194.55,322.103z"/>
	</g>
</g>
<g>
	<g>
		<path d="M194.55,282.16c-5.632,0-10.199,4.566-10.199,10.199v8.193c0,5.633,4.567,10.199,10.199,10.199 s10.199-4.566,10.199-10.199v-8.193C204.749,286.726,200.182,282.16,194.55,282.16z"/>
	</g>
</g>
</svg>
