<svg version="1.1" id="Capa_1" xmlns="http://www.w3.org/2000/svg" xmlns:xlink="http://www.w3.org/1999/xlink" x="0px" y="0px" viewBox="0 0 472.613 472.613" style="enable-background:new 0 0 472.613 472.613;" xml:space="preserve">
<g>
	<g>
		<g>
			<path d="M395.21,0H112.899C87.897,0,67.556,20.34,67.556,45.342v381.927c0,0,0,0,0,0c0,0,0,0,0,0.001 c0,25.002,20.34,45.342,45.342,45.342H395.21c5.438,0,9.846-4.409,9.846-9.846v-70.993V9.846C405.056,4.409,400.648,0,395.21,0z M385.364,452.92H112.899c-14.143,0-25.65-11.507-25.65-25.651c0-14.143,11.507-25.65,25.65-25.65h272.465V452.92z M385.364,381.927H112.899c-9.514,0-18.35,2.952-25.65,7.98V45.342c0-14.143,11.507-25.65,25.65-25.65h272.465V381.927z"/>
			<path d="M204.307,218.017c3.24,0.433,6.473,0.647,9.688,0.647c12.429-0.001,24.536-3.218,35.338-9.365l63.773,83.451 c1.938,2.536,4.867,3.868,7.831,3.868c2.085,0,4.187-0.66,5.971-2.024c4.32-3.302,5.146-9.481,1.844-13.802l-63.774-83.452 c11.035-11.084,18.131-25.384,20.238-41.154c2.548-19.063-2.48-37.978-14.159-53.26c-11.678-15.282-28.608-25.101-47.671-27.649 c-19.07-2.551-37.978,2.481-53.261,14.159c-15.282,11.678-25.101,28.608-27.649,47.671c-2.548,19.064,2.48,37.979,14.159,53.261 C168.313,205.65,185.243,215.469,204.307,218.017z M161.995,139.717c1.851-13.85,8.986-26.15,20.089-34.635 c9.215-7.043,20.25-10.757,31.655-10.757c2.335,0,4.686,0.156,7.038,0.47c13.85,1.851,26.15,8.986,34.635,20.088 c8.484,11.102,12.137,24.843,10.286,38.693c-1.852,13.85-8.986,26.15-20.088,34.635c-11.101,8.484-24.843,12.137-38.693,10.287 c-13.85-1.852-26.15-8.986-34.635-20.088C163.797,167.309,160.144,153.567,161.995,139.717z"/>
		</g>
	</g>
</g>
</svg>
