<svg version="1.1" id="Capa_1" xmlns="http://www.w3.org/2000/svg" xmlns:xlink="http://www.w3.org/1999/xlink" x="0px" y="0px" viewBox="0 0 440.965 440.965" style="enable-background:new 0 0 440.965 440.965;" xml:space="preserve">
<g>
	<g>
		<path d="M341.508,36.207C305.582,12.648,263.549,0.116,220.587,0.154C98.892,0.271,0.235,98.832,0,220.527
			c-0.046,42.838,12.652,84.721,36.48,120.32L0.853,426.18c-2.189,5.469,0.47,11.677,5.939,13.867c2.544,1.018,5.383,1.018,7.928,0
			l85.333-35.627c101.679,66.676,238.158,38.3,304.834-63.379S443.187,102.883,341.508,36.207z M220.801,419.567
			c-0.071,0-0.142,0-0.213,0v0.213h-0.001c-40.532-0.319-80.02-12.886-113.28-36.053c-1.754-1.224-3.835-1.893-5.973-1.92
			c-1.338-0.264-2.715-0.264-4.053,0l-66.774,28.587l27.947-66.56c1.424-3.37,1.022-7.236-1.067-10.24
			c-23.487-33.021-36.09-72.545-36.053-113.067C21.216,110.482,110.329,21.178,220.374,21.06
			c110.044-0.118,199.349,88.995,199.467,199.04C419.959,330.145,330.846,419.449,220.801,419.567z"/>
	</g>
</g>
<g>
	<g>
		<path d="M288.514,162.764c-4.633-33.756-33.865-58.657-67.927-57.864c-36.795-0.118-66.752,29.552-66.987,66.347
			c0,5.891,4.776,10.667,10.667,10.667s10.667-4.776,10.667-10.667c0.471-25.209,21.289-45.263,46.499-44.792
			c25.21,0.471,45.263,21.289,44.792,46.499c-0.465,24.874-20.759,44.796-45.637,44.8c-5.891,0-10.667,4.776-10.667,10.667v47.787
			c0,5.891,4.776,10.667,10.667,10.667s10.667-4.776,10.667-10.667v-37.973C267.907,233.206,293.543,199.416,288.514,162.764z"/>
	</g>
</g>
<g>
	<g>
		<circle cx="219.697" cy="325.147" r="11.675"/>
	</g>
</g>
</svg>
