<svg version="1.1" id="Capa_1" xmlns="http://www.w3.org/2000/svg" xmlns:xlink="http://www.w3.org/1999/xlink" x="0px" y="0px" viewBox="0 0 448 448" style="enable-background:new 0 0 448 448;" xml:space="preserve">
<g>
	<g>
		<g>
			<path d="M446.357,72.211c-1.088-5.675-2.752-11.243-4.928-16.555c-2.219-5.461-4.992-10.688-8.213-15.552
				c-3.328-5.013-7.189-9.728-11.499-14.016c-4.331-4.309-9.067-8.149-14.08-11.413c-4.907-3.221-10.176-5.973-15.573-8.149
				c-5.333-2.176-10.944-3.819-16.64-4.907c-11.243-2.155-22.997-2.155-34.219,0c-5.717,1.109-11.307,2.752-16.619,4.907
				c-5.44,2.197-10.688,4.928-15.616,8.171c-5.013,3.264-9.749,7.104-14.08,11.435l-99.349,98.795
				c-4.352,4.288-8.213,9.003-11.52,13.995c-3.264,4.907-1.92,11.541,2.987,14.784c4.885,3.264,11.52,1.899,14.784-2.987
				c2.517-3.797,5.461-7.381,8.768-10.667l99.349-98.795c3.328-3.285,6.933-6.229,10.731-8.725
				c3.755-2.453,7.744-4.544,11.925-6.229c4.032-1.643,8.299-2.901,12.651-3.733c8.576-1.664,17.557-1.664,26.155,0
				c4.352,0.832,8.597,2.091,12.672,3.733c4.139,1.664,8.128,3.755,11.883,6.208c3.797,2.496,7.424,5.44,10.731,8.725
				c3.285,3.264,6.229,6.848,8.768,10.667c2.453,3.691,4.544,7.659,6.229,11.797c1.664,4.032,2.923,8.256,3.755,12.565
				c0.832,4.267,1.259,8.64,1.259,12.992c0,4.373-0.427,8.725-1.259,12.992c-0.832,4.309-2.091,8.512-3.733,12.565
				c-1.685,4.117-3.776,8.085-6.229,11.797c-2.517,3.797-5.461,7.381-8.768,10.667l-99.349,98.795
				c-3.328,3.285-6.933,6.229-10.752,8.725c-3.712,2.432-7.701,4.523-11.883,6.229c-4.053,1.643-8.32,2.901-12.672,3.733
				c-8.576,1.664-17.557,1.664-26.155,0c-4.352-0.832-8.597-2.091-12.693-3.733c-4.139-1.664-8.128-3.755-11.883-6.208
				c-3.819-2.496-7.424-5.44-10.731-8.725c-3.264-3.243-6.229-6.827-8.768-10.667c-2.453-3.691-4.544-7.659-6.229-11.776
				c-2.219-5.461-8.448-8.085-13.888-5.845c-5.461,2.219-8.085,8.448-5.845,13.888c2.219,5.461,4.992,10.688,8.213,15.552
				c3.328,5.035,7.211,9.749,11.499,13.995c4.331,4.288,9.045,8.149,14.08,11.435c4.907,3.221,10.176,5.973,15.595,8.149
				c5.333,2.176,10.944,3.819,16.619,4.907c5.611,1.045,11.349,1.6,17.088,1.6c5.739,0,11.499-0.555,17.109-1.621
				c5.696-1.109,11.307-2.752,16.64-4.907c5.461-2.219,10.709-4.949,15.595-8.171c5.013-3.264,9.749-7.104,14.08-11.435
				l99.371-98.816c4.309-4.309,8.171-9.003,11.477-13.973c3.221-4.864,5.995-10.091,8.213-15.531
				c2.176-5.333,3.84-10.901,4.928-16.555c1.109-5.589,1.664-11.328,1.664-17.067C448,83.517,447.445,77.779,446.357,72.211z"/>
			<path d="M260.992,294.291c-4.928-3.307-11.541-1.899-14.784,2.987c-2.517,3.797-5.461,7.381-8.768,10.667l-99.349,98.795
				c-3.328,3.285-6.933,6.229-10.731,8.725c-3.755,2.453-7.744,4.544-11.925,6.229c-4.032,1.643-8.299,2.901-12.651,3.733
				c-8.576,1.664-17.557,1.664-26.155,0c-4.352-0.832-8.597-2.091-12.672-3.733c-4.139-1.664-8.128-3.755-11.883-6.208
				c-3.797-2.496-7.424-5.44-10.731-8.725c-3.285-3.264-6.229-6.848-8.768-10.667c-2.453-3.691-4.544-7.659-6.229-11.797
				c-1.664-4.032-2.923-8.256-3.755-12.565c-0.832-4.267-1.259-8.64-1.259-12.992c0-4.373,0.427-8.725,1.259-12.992
				c0.832-4.309,2.091-8.512,3.755-12.565c1.685-4.117,3.776-8.085,6.229-11.797c2.517-3.797,5.461-7.381,8.768-10.667
				l99.349-98.795c3.328-3.285,6.933-6.229,10.752-8.725c3.712-2.432,7.701-4.523,11.883-6.229c4.053-1.643,8.32-2.901,12.672-3.733
				c8.576-1.664,17.557-1.664,26.155,0c4.352,0.832,8.597,2.091,12.693,3.733c4.139,1.664,8.128,3.755,11.883,6.208
				c3.819,2.496,7.424,5.44,10.731,8.725c3.264,3.243,6.229,6.827,8.768,10.667c2.453,3.691,4.544,7.659,6.229,11.776
				c2.219,5.461,8.469,8.085,13.888,5.845c5.461-2.219,8.085-8.448,5.845-13.888c-2.219-5.461-4.992-10.688-8.213-15.552
				c-3.328-5.035-7.211-9.749-11.499-13.995c-4.331-4.288-9.045-8.149-14.08-11.435c-4.907-3.221-10.176-5.973-15.595-8.149
				c-5.333-2.176-10.944-3.819-16.619-4.907c-11.243-2.155-22.997-2.155-34.219,0c-5.696,1.131-11.307,2.773-16.64,4.928
				c-5.461,2.219-10.709,4.949-15.595,8.171c-5.013,3.264-9.749,7.104-14.08,11.435l-99.371,98.816
				c-4.309,4.309-8.171,9.003-11.477,13.973c-3.221,4.864-5.995,10.091-8.213,15.531c-2.176,5.333-3.84,10.901-4.928,16.555
				C0.555,347.261,0,353,0,358.739s0.555,11.477,1.643,17.045c1.088,5.675,2.752,11.243,4.928,16.555
				c2.219,5.461,4.992,10.688,8.213,15.552c3.328,5.013,7.189,9.728,11.499,14.016c4.331,4.309,9.067,8.149,14.08,11.413
				c4.907,3.221,10.176,5.973,15.573,8.149c5.333,2.176,10.944,3.819,16.64,4.907c5.653,1.067,11.392,1.621,17.131,1.621
				c5.739,0,11.499-0.555,17.109-1.621c5.717-1.109,11.307-2.752,16.619-4.907c5.44-2.197,10.688-4.928,15.616-8.171
				c5.013-3.264,9.749-7.104,14.08-11.435l99.349-98.795c4.331-4.288,8.192-9.003,11.499-13.995
				C267.243,304.168,265.899,297.533,260.992,294.291z"/>
		</g>
	</g>
</g>
</svg>
