<svg height="682pt" viewBox="-117 -21 682 682.6646" width="682pt" xmlns="http://www.w3.org/2000/svg"><path d="m431.25 639.996094h-426.664062c-5.890626 0-10.671876-4.773438-10.671876-10.660156v-618.667969c0-5.886719 4.78125-10.667969 10.671876-10.667969h330.660156c2.828125 0 5.546875 1.125 7.546875 3.125l96 96c2 2.007812 3.125 4.71875 3.125 7.542969v522.667969c0 5.886718-4.78125 10.660156-10.667969 10.660156zm-416-21.332032h405.335938v-507.582031l-89.753907-89.75h-315.582031zm0 0"/><path d="m431.25 117.332031h-96.003906c-5.886719 0-10.664063-4.773437-10.664063-10.664062v-96c0-4.308594 2.605469-8.203125 6.582031-9.855469 3.992188-1.652344 8.574219-.734375 11.628907 2.3125l96 96c3.046875 3.050781 3.964843 7.636719 2.3125 11.625-1.652344 3.980469-5.535157 6.582031-9.855469 6.582031zm-85.332031-21.332031h59.582031l-59.582031-59.585938zm0 0"/><path d="m431.25 639.996094h-426.664062c-5.890626 0-10.671876-4.773438-10.671876-10.660156v-192.003907c0-5.886719 4.78125-10.664062 10.671876-10.664062h426.664062c5.886719 0 10.667969 4.777343 10.667969 10.664062v192.003907c0 5.886718-4.78125 10.660156-10.667969 10.660156zm-416-21.332032h405.335938v-170.664062h-405.335938zm0 0"/><path d="m153.914062 288.003906h-85.332031c-5.886719 0-10.667969-4.78125-10.667969-10.671875 0-5.886719 4.78125-10.664062 10.667969-10.664062h85.332031c5.890626 0 10.671876 4.777343 10.671876 10.664062 0 5.890625-4.78125 10.671875-10.671876 10.671875zm0 0"/><path d="m303.25 288.003906h-106.667969c-5.890625 0-10.664062-4.78125-10.664062-10.671875 0-5.886719 4.773437-10.664062 10.664062-10.664062h106.667969c5.890625 0 10.664062 4.777343 10.664062 10.664062 0 5.890625-4.773437 10.671875-10.664062 10.671875zm0 0"/><path d="m271.25 330.667969h-117.335938c-5.886718 0-10.664062-4.78125-10.664062-10.667969 0-5.882812 4.777344-10.664062 10.664062-10.664062h117.335938c5.886719 0 10.667969 4.78125 10.667969 10.664062 0 5.886719-4.78125 10.667969-10.667969 10.667969zm0 0"/><path d="m367.25 288.003906h-21.332031c-5.890625 0-10.671875-4.78125-10.671875-10.671875 0-5.886719 4.78125-10.664062 10.671875-10.664062h21.332031c5.886719 0 10.664062 4.777343 10.664062 10.664062 0 5.890625-4.777343 10.671875-10.664062 10.671875zm0 0"/><path d="m367.25 330.667969h-53.335938c-5.886718 0-10.664062-4.78125-10.664062-10.667969 0-5.882812 4.777344-10.664062 10.664062-10.664062h53.335938c5.886719 0 10.664062 4.78125 10.664062 10.664062 0 5.886719-4.777343 10.667969-10.664062 10.667969zm0 0"/><path d="m111.25 330.667969h-42.667969c-5.886719 0-10.667969-4.78125-10.667969-10.667969 0-5.882812 4.78125-10.664062 10.667969-10.664062h42.667969c5.886719 0 10.667969 4.78125 10.667969 10.664062 0 5.886719-4.78125 10.667969-10.667969 10.667969zm0 0"/><path d="m153.914062 373.332031h-85.332031c-5.886719 0-10.667969-4.777343-10.667969-10.664062s4.78125-10.667969 10.667969-10.667969h85.332031c5.890626 0 10.671876 4.78125 10.671876 10.667969s-4.78125 10.664062-10.671876 10.664062zm0 0"/><path d="m303.25 373.332031h-106.667969c-5.890625 0-10.664062-4.777343-10.664062-10.664062s4.773437-10.667969 10.664062-10.667969h106.667969c5.890625 0 10.664062 4.78125 10.664062 10.667969s-4.773437 10.664062-10.664062 10.664062zm0 0"/><path d="m367.25 373.332031h-21.332031c-5.890625 0-10.671875-4.777343-10.671875-10.664062s4.78125-10.667969 10.671875-10.667969h21.332031c5.886719 0 10.664062 4.78125 10.664062 10.667969s-4.777343 10.664062-10.664062 10.664062zm0 0"/><path d="m367.25 245.335938h-85.332031c-5.890625 0-10.667969-4.78125-10.667969-10.667969 0-5.890625 4.777344-10.664063 10.667969-10.664063h85.332031c5.886719 0 10.664062 4.773438 10.664062 10.664063 0 5.886719-4.777343 10.667969-10.664062 10.667969zm0 0"/><path d="m239.246094 245.335938h-106.664063c-5.886719 0-10.664062-4.78125-10.664062-10.667969 0-5.890625 4.777343-10.664063 10.664062-10.664063h106.664063c5.890625 0 10.667968 4.773438 10.667968 10.664063 0 5.886719-4.777343 10.667969-10.667968 10.667969zm0 0"/><path d="m281.917969 202.671875h-117.332031c-5.890626 0-10.671876-4.78125-10.671876-10.671875 0-5.886719 4.78125-10.667969 10.671876-10.667969h117.332031c5.882812 0 10.664062 4.78125 10.664062 10.667969 0 5.890625-4.78125 10.671875-10.664062 10.671875zm0 0"/><path d="m89.917969 245.335938h-21.335938c-5.886719 0-10.667969-4.78125-10.667969-10.667969 0-5.890625 4.78125-10.664063 10.667969-10.664063h21.335938c5.886719 0 10.667969 4.773438 10.667969 10.664063 0 5.886719-4.78125 10.667969-10.667969 10.667969zm0 0"/><path d="m121.917969 202.671875h-53.335938c-5.886719 0-10.667969-4.78125-10.667969-10.671875 0-5.886719 4.78125-10.667969 10.667969-10.667969h53.335938c5.882812 0 10.664062 4.78125 10.664062 10.667969 0 5.890625-4.78125 10.671875-10.664062 10.671875zm0 0"/><path d="m367.25 202.671875h-42.667969c-5.886719 0-10.667969-4.78125-10.667969-10.671875 0-5.886719 4.78125-10.667969 10.667969-10.667969h42.667969c5.886719 0 10.664062 4.78125 10.664062 10.667969 0 5.890625-4.777343 10.671875-10.664062 10.671875zm0 0"/><path d="m132.582031 490.667969h-64c-5.886719 0-10.667969-4.78125-10.667969-10.667969s4.78125-10.664062 10.667969-10.664062h64c5.890625 0 10.667969 4.777343 10.667969 10.664062s-4.777344 10.667969-10.667969 10.667969zm0 0"/><path d="m100.585938 597.332031c-5.890626 0-10.667969-4.773437-10.667969-10.664062v-106.667969c0-5.886719 4.777343-10.664062 10.667969-10.664062 5.882812 0 10.664062 4.777343 10.664062 10.664062v106.667969c0 5.890625-4.78125 10.664062-10.664062 10.664062zm0 0"/><path d="m185.90625 597.332031c-1.871094 0-3.769531-.488281-5.472656-1.523437-5.058594-3.03125-6.691406-9.578125-3.65625-14.632813l63.996094-106.671875c3.027343-5.050781 9.589843-6.683594 14.636718-3.65625 5.058594 3.027344 6.6875 9.582032 3.65625 14.632813l-64 106.671875c-2.007812 3.335937-5.535156 5.179687-9.160156 5.179687zm0 0"/><path d="m249.925781 597.332031c-3.628906 0-7.160156-1.84375-9.152343-5.171875l-63.996094-106.667968c-3.035156-5.054688-1.402344-11.601563 3.65625-14.632813 5.042968-3.039063 11.605468-1.398437 14.632812 3.660156l64 106.664063c3.03125 5.054687 1.402344 11.609375-3.65625 14.636718-1.71875 1.023438-3.621094 1.511719-5.484375 1.511719zm0 0"/><path d="m367.25 490.667969h-64c-5.886719 0-10.667969-4.78125-10.667969-10.667969s4.78125-10.664062 10.667969-10.664062h64c5.886719 0 10.664062 4.777343 10.664062 10.664062s-4.777343 10.667969-10.664062 10.667969zm0 0"/><path d="m335.246094 597.332031c-5.886719 0-10.664063-4.773437-10.664063-10.664062v-106.667969c0-5.886719 4.777344-10.664062 10.664063-10.664062 5.890625 0 10.671875 4.777343 10.671875 10.664062v106.667969c0 5.890625-4.78125 10.664062-10.671875 10.664062zm0 0"/></svg>