<?xml version="1.0" encoding="iso-8859-1"?>
<!-- Generator: Adobe Illustrator 19.0.0, SVG Export Plug-In . SVG Version: 6.00 Build 0)  -->
<svg version="1.1" id="Capa_1" xmlns="http://www.w3.org/2000/svg" xmlns:xlink="http://www.w3.org/1999/xlink" x="0px" y="0px"
	 viewBox="0 0 512.001 512.001" style="enable-background:new 0 0 512.001 512.001;" xml:space="preserve">
<g>
	<g>
		<path d="M160.756,393.666l-42.425-42.426c-1.895-1.895-4.657-2.635-7.244-1.941l-57.955,15.529
			c-2.588,0.694-4.61,2.715-5.304,5.304l-15.529,57.954c-0.693,2.588,0.047,5.35,1.941,7.244l42.425,42.426
			c1.425,1.425,3.34,2.197,5.304,2.197c0.647,0,1.299-0.083,1.941-0.255l57.955-15.529c2.588-0.694,4.609-2.715,5.303-5.304
			l15.529-57.955C163.39,398.322,162.65,395.56,160.756,393.666z M133.801,450.8l-49.589,13.288l-36.302-36.302l13.287-49.59
			l49.59-13.287l36.301,36.301L133.801,450.8z"/>
	</g>
</g>
<g>
	<g>
		<path d="M330.244,255.998l9.199-9.199c14.401,5.44,29.537,8.195,45.063,8.195c34.052,0,66.066-13.26,90.144-37.337
			c17.305-17.305,29.2-39.033,34.397-62.838c5.06-23.17,3.598-47.222-4.227-69.559c-0.853-2.434-2.896-4.259-5.411-4.833
			c-2.513-0.574-5.146,0.185-6.971,2.009l-73.444,73.443l-49.589-13.288l-13.288-49.589l73.443-73.444
			c1.824-1.824,2.583-4.457,2.009-6.971c-0.573-2.515-2.398-4.558-4.833-5.411c-13.585-4.759-27.798-7.172-42.243-7.172
			c-34.056,0-66.073,13.262-90.154,37.342c-18.31,18.31-30.477,41.395-35.186,66.761c-4.286,23.083-2.191,46.636,6.044,68.446
			l-30.414,30.414L131.242,99.426l-3.182-22.273c-0.229-1.606-0.974-3.095-2.122-4.243L55.229,2.201
			c-2.928-2.929-7.677-2.929-10.606,0L2.197,44.627C0.79,46.033,0,47.941,0,49.93c0,1.989,0.79,3.897,2.197,5.303l21.212,21.212
			c0.003,0.003,49.498,49.498,49.498,49.498c1.147,1.147,2.636,1.892,4.243,2.122l22.273,3.182l103.541,103.54l-84.487,84.487
			c-6.88-1.509-13.918-2.272-20.981-2.272c-26.042,0-50.525,10.141-68.939,28.555C10.142,363.971,0,388.455,0,414.498
			c0,26.043,10.142,50.526,28.558,68.941c18.415,18.416,42.898,28.558,68.941,28.558s50.527-10.142,68.942-28.558
			c23.5-23.499,33.365-57.596,26.282-89.92l126.915-126.915l166.371,166.371c7.082,7.078,10.983,16.491,10.984,26.504
			c0.001,10.021-3.906,19.448-11,26.542c-7.087,7.08-16.507,10.976-26.532,10.976c-10.044-0.011-19.43-3.909-26.482-10.985
			L282.515,335.546c-2.929-2.929-7.678-2.929-10.606,0c-2.929,2.929-2.929,7.678,0,10.606l150.456,150.456
			c9.874,9.907,23.028,15.372,37.037,15.388c0.021,0,0.04,0,0.061,0c14.027,0,27.212-5.455,37.134-15.367
			c9.93-9.93,15.398-23.125,15.396-37.152c-0.001-14.021-5.463-27.201-15.379-37.109L330.244,255.998z M384.494,15.004
			c8.631,0.001,17.167,0.976,25.5,2.908l-62.241,62.242l-37.325-37.325C330.938,24.836,356.958,15.004,384.494,15.004z
			 M18.106,49.93l31.82-31.819l10.606,10.606l-31.82,31.819L18.106,49.93z M108.261,118.871c-1.147-1.147-2.636-1.892-4.243-2.122
			l-22.273-3.182L39.319,71.142l31.82-31.82l42.426,42.426l3.182,22.273c0.229,1.606,0.974,3.095,2.122,4.243l105.307,105.309
			l-10.607,10.607L108.261,118.871z M179.138,385.891c-1.893,1.893-2.634,4.651-1.943,7.238
			c7.584,28.403-0.601,58.944-21.361,79.704c-15.582,15.582-36.299,24.164-58.335,24.164c-22.036,0-42.753-8.582-58.335-24.164
			C23.583,457.251,15,436.534,15,414.498c0-22.037,8.582-42.753,24.164-58.335c15.581-15.581,36.296-24.162,58.332-24.162
			c7.222,0,14.413,0.942,21.372,2.8c2.587,0.692,5.346-0.05,7.238-1.943l153.196-153.196c2.161-2.161,2.794-5.416,1.603-8.229
			c-16.994-40.112-9.475-85.614,18.924-117.993l41.201,41.201l15.009,56.014c0.694,2.588,2.715,4.61,5.304,5.304l57.954,15.529
			c2.59,0.694,5.351-0.046,7.245-1.941l67.536-67.535c8.62,37.436-2.556,77.562-30.033,105.038
			c-21.245,21.245-49.491,32.945-79.537,32.945c-15.217,0-30.002-2.995-43.943-8.902c-2.811-1.192-6.068-0.559-8.229,1.603
			L179.138,385.891z"/>
	</g>
</g>
<g>
	<g>
		<path d="M454.192,464.798L346.154,356.759c-2.929-2.928-7.678-2.928-10.607,0c-2.929,2.929-2.929,7.678,0,10.606l108.039,108.039
			c1.464,1.464,3.384,2.197,5.303,2.197c1.919,0,3.839-0.732,5.303-2.197C457.121,472.475,457.121,467.726,454.192,464.798z"/>
	</g>
</g>
<g>
	<g>
		<path d="M324.94,335.546l-21.213-21.213c-2.928-2.93-7.677-2.929-10.606,0c-2.929,2.929-2.929,7.678,0,10.606l21.213,21.213
			c1.464,1.465,3.384,2.197,5.303,2.197c1.919,0,3.839-0.732,5.303-2.197C327.869,343.223,327.869,338.475,324.94,335.546z"/>
	</g>
</g>
<g>
	<g>
		<path d="M475.405,443.585L324.94,293.121c-2.929-2.929-7.678-2.929-10.606,0c-2.929,2.929-2.929,7.678,0,10.606l150.465,150.465
			c1.465,1.465,3.384,2.197,5.303,2.197c1.919,0,3.839-0.732,5.303-2.197C478.334,451.262,478.334,446.513,475.405,443.585z"/>
	</g>
</g>
<g>
	<g>
		<path d="M300.513,232.697c-2.929-2.929-7.678-2.929-10.606,0L184.441,338.162l-10.607-10.607l105.466-105.466
			c2.929-2.929,2.929-7.678,0-10.606c-2.929-2.929-7.678-2.929-10.606,0l-110.77,110.769c-2.929,2.929-2.929,7.678,0,10.606
			l21.213,21.213c1.465,1.465,3.384,2.198,5.304,2.198c1.919,0,3.839-0.732,5.303-2.197l110.769-110.769
			C303.442,240.374,303.442,235.625,300.513,232.697z"/>
	</g>
</g>
<g>
</g>
<g>
</g>
<g>
</g>
<g>
</g>
<g>
</g>
<g>
</g>
<g>
</g>
<g>
</g>
<g>
</g>
<g>
</g>
<g>
</g>
<g>
</g>
<g>
</g>
<g>
</g>
<g>
</g>
</svg>
